<?xml version="1.0" encoding="UTF-8"?><svg id="a" xmlns="http://www.w3.org/2000/svg" viewBox="0 0 800 600.7"><path d="M588.02,137.43c-3.11,1.79-7.12,2.54-7.96,6.94-.02,.08-.11,.17-.19,.22-4.61,3.04-6.06,8.63-9.96,12.27-3.45,3.21-6.64,6.7-10.03,9.96-2.08,2-3.05,4.07-2,7.02,.77,2.17,1.03,4.53,1.59,7.16,.46-.55,.82-.89,1.06-1.3,5.91-9.76,12.02-19.35,20.42-27.26,3.26-3.07,6.25-6.45,9.2-9.83,5.63-6.44,8.87-13.86,9.08-22.54,.03-1.23,.92-2.45,1.41-3.67,.57,1.14,1.5,2.24,1.65,3.44,.87,6.99,1.16,13.85-1.92,20.63-3.74,8.24-7.42,16.43-12.35,24.1-6.85,10.65-10.21,22.65-11.21,35.25-.24,3.01-1.64,4.1-4.31,4.3,.84-3.58,1.82-7.13,2.49-10.74,1.99-10.69,4.81-21.15,11.09-30.14,6.56-9.4,10.69-19.83,14.36-30.53,.19-.54,.19-1.15,.27-1.73-3.78,9.68-10.61,17.33-16.23,25.85,1.22-.75,2.45-1.49,3.67-2.24-8.11,5.06-14.37,11.58-17.65,20.66,3.48-4.79,7.31-9.18,12.7-11.93-7.68,6.32-13.74,13.62-15.65,23.77-1.92,10.19-3.11,20.57-7.59,30.12-.22,.47-.11,1.09-.16,1.63l.56,.33c2.35-3.01,4.69-6.02,7.04-9.03,.46,0,1.05,.21,1.35,0,6.92-5.06,13.7-10.29,20.72-15.2,4.91-3.43,10.44-5.37,16.56-4.06,1.59,.34,3.35,1.24,4.41,2.44,1.72,1.93,.91,3.31-1.57,4.03-1.22,.36-2.67,1.11-3.29,2.13-1.29,2.12-2.54,4.44-3.01,6.84-1.18,6.11-3.37,11.57-8.02,15.87-.56,.52-.96,1.23-1.41,1.86-1.32,1.84-1.89,3.3,.56,5.04,3.5,2.49,4.64,6.25,3.49,10.41-1.85,6.64-12.43,17.69-22.7,16.31-3.13-.42-6.14-1.67-9.62-2.65,0,4.21,.69,8.6-.17,12.66-1.17,5.55-3.15,11.02-5.44,16.23-2.66,6.06-5.16,11.92-3.7,18.81,.7,3.31,1.1,6.85,.71,10.18-.38,3.15-1.97,6.15-3.86,9.46-2.03-3.57-3.77-7.36-6.21-10.63-1.67-2.24-2.2-4.41-2.18-6.82,2.71,4.8,5.45,9.65,8.2,14.5l.96-.3c-.21-1.11-.15-2.39-.69-3.3-1.94-3.25-4.21-6.31-6.12-9.57-1.6-2.72-2.87-5.63-4.44-8.74-1.33,4.66-1.37,9.01-.42,13.43,1.82,8.55,3.41,17.16,5.45,25.66,1.04,4.32,2.85,8.46,4.31,12.67l.76-.07c-.27-2.27-.24-4.64-.88-6.8-1.93-6.52-4.19-12.94-6.19-19.44-.56-1.83-.69-3.8-.62-5.81,4.08,11.57,9.6,22.69,9.91,35.38l.75-.06c.42-1.46,.85-2.92,1.26-4.38,.44-1.59,.54-3.37,1.33-4.76,3.23-5.64,3.66-11.77,3.86-18.06,.51-15.67,6.37-29.35,16.07-41.48,2.19-2.73,4.51-5.41,7.11-7.73,.97-.87,2.9-.68,4.39-.97-.09,1.32-.11,2.65-.3,3.95-.17,1.14-.81,2.24-.8,3.36,.15,15.52-3.51,30.01-11.05,42.56,5.35-1.66,11.21-4.09,17.3-5.17,5.28-.94,10.86-.75,16.25-.32,4.24,.34,7.51,3.16,9.81,6.73,.64,1,.53,2.48,.76,3.74-1.1,.18-2.2,.38-3.31,.53-.86,.12-1.77,.06-2.58,.33-1.01,.33-2.02,.77-2.88,1.38-8.94,6.3-18.88,9.52-29.68,11.3-13.78,2.27-20.73,10.89-21.61,24.75-.45,7.1-.79,14.21-.59,21.58,1.39-2.7,2.88-5.35,4.16-8.11,2.81-6.09,5.51-12.24,8.28-18.35,.32-.71,.64-1.49,1.18-2.01,.7-.68,1.62-1.13,2.44-1.67,.52,.95,1.53,1.93,1.46,2.83-.25,3.29-.84,6.56-1.33,9.83-1.09,7.31-3.86,14.04-7.06,20.63-.5,1.04-.94,2.1-1.68,3.75,1.22-.61,1.95-.93,2.63-1.32,9.58-5.46,19.54-5.91,29.86-2.4,.95,.32,2.08,.12,3.13,.11,.79-.01,1.57-.11,2.36-.18l.38,.89c-.84,.59-1.59,1.45-2.52,1.74-8.03,2.5-11.19,8.73-12.06,16.32-.64,5.64-1.87,10.84-5.24,15.56-1.48,2.07-2,4.81-3.08,7.19-1.64,3.61-3.16,7.31-5.21,10.68-.94,1.53-3,2.41-4.61,3.49-1.27,.85-2.63,1.56-3.95,2.33l.38,.85c2.03-.76,4.14-1.37,6.08-2.31,2.07-1.01,3.99-2.34,6.37-3.18-1.15,1.29-2.31,2.57-3.46,3.86l.37,.44c2.13-1.81,4.25-3.63,6.38-5.44l.41,.38c-.77,1.1-1.54,2.2-2.31,3.31l.42,.47c2.06-1.57,4.12-3.14,6.17-4.71l.33,.37c-.79,.9-1.57,1.8-2.44,2.79,8.13-2.91,16.37-10.76,18.06-17.02-7.77,6.63-15.72,13.11-26.9,13.19,1.37-.44,2.73-.93,4.11-1.3,10.15-2.69,18.94-7.16,23.44-17.45,.25-.57,.81-1,1.67-2.04,.81,4.53,.18,8.2-1.69,11.69-4.89,9.08-12.1,15.4-21.98,18.59-2.56,.83-5.05,1.89-7.07,2.67,2.93,2.22,5.73,4.49,8.7,6.53,1.31,.9,2.93,1.39,4.45,1.95,2.17,.79,4.58,1.12,6.54,2.26,6.04,3.51,7.34,11.22,2.57,16.29-2.52,2.68-5.83,4.59-8.85,6.9,6.31,3.98,7.46,10.2,6.24,17.38-.31,1.79-.22,3.74,.15,5.53,2.59,12.58-8.13,24.98-16.25,27.22-4.26,1.17-7.83,3.02-11.56,4.94-7.13,3.66-10.58,2.5-13.9-4.73-.28-.61-.58-1.21-1.09-2.29-1.08,.94-1.9,1.87-2.9,2.49-2.2,1.36-4.37,2.94-6.78,3.75-3.63,1.21-4.74,.58-6.52-2.81-.97-1.86-2.21-2.29-4.05-1.5-2.64,1.13-5.07,1.01-7.34-1-.49-.43-1.58-.67-2.16-.44-4.85,2.01-9.09,.46-13.21-2.04-.3-.19-.67-.27-1.25-.5,.91,4.57,1.86,8.9,2.57,13.26,.17,1.04-.48,2.21-.75,3.32-1.17-.29-2.39-.47-3.5-.91-.66-.26-1.08-1.1-1.74-1.38-6.89-2.98-12.84-7.22-17.74-13.19-.97,.79-1.91,1.57-3.01,2.47,2.19,2.93,6.84,4.12,6.4,8.5-.21,2.1-1.71,4.06-3.26,5.78,.33-2.55,1.48-5.38,.75-7.58-.69-2.08-3.35-3.5-5.56-4.8,1.33,4.78,2.5,9.61,4.04,14.32,1.91,5.87,5.84,10.02,11.52,12.52,1.08,.48,2.02,1.28,2.84,2.26-3.19,1.26-5.69,0-7.98-1.61-6.4-4.49-9.42-10.9-10.4-18.5-.32-2.51-1.03-4.98-1.64-7.87-2.64,2.5-1.98,12.68,.53,17.98,3.1,6.54,13.02,12.5,19.18,11.74,.97-1.9,1.77-3.7,2.79-5.36,.33-.53,1.51-1.14,1.82-.94,.61,.37,1.17,1.27,1.24,2,.41,4.33-2,6.74-6.46,7.37-8.03,1.14-22.24-7.78-22.11-19.76,.02-2.34,0-4.68-.41-7.16-.87,1.96-1.75,3.91-2.62,5.87l-.92-.08c-1.47-4.99-3.04-9.94-4.37-14.97-1.33-5.03-2.41-10.13-3.73-15.78-2.5,4.58-4.79,8.61-3.49,13.58,2.82,10.77-3.02,18.71-14.22,18.99,.22,4.6,.17,9.25-3.7,12.6-3.79,3.28-8.14,3.17-12.8,1.47-.34,6.96-3.61,11.43-10.34,13.31-8.73,2.44-13.63-2.19-17.35-9.68-2.08,3.96-4.36,7.03-8.47,8.04-6.05,1.5-11.14-.24-15.48-4.54-.76-.75-1.39-1.64-2.08-2.46-2.92-3.43-2.95-3.49-7.06-1.59-4.07,1.88-7.79,2.19-11.22-1.41-.75-.78-2.23-1.07-3.41-1.19-5.05-.51-6.48-1.62-7.99-6.59-.48-1.58-.82-3.21-1.45-4.72-1.05-2.52-2.66-2.82-4.77-1.09-1.88,1.55-3.72,3.14-5.69,4.56-.79,.57-1.87,.71-2.82,1.05l-.58-.75c.94-.97,1.92-1.9,2.82-2.91,1.67-1.87,3.47-3.67,4.9-5.72,1.52-2.19,1.13-4.37-.63-5.93-4.77,4.62-9.47,9.09-14.06,13.66-1.3,1.29-2.42,2.8-3.39,4.36-1.32,2.12-3.24,2.79-5.63,3.1,.15-.42,.16-.72,.28-.76,4.68-1.89,4.6-6.75,6.12-10.43,.81-1.97,.04-4.74-.44-7.06-.78-3.79-2.01-7.49-2.85-11.28-.31-1.38-.05-2.88-.05-4.65-6.46,6.87-14.26,11.3-22.82,14.14-4.53,1.5-9.48,2.09-14.27,2.31-5.36,.25-10.71-.14-15.81,2.08-.77,.33-1.93-.22-2.91-.37,.19-.89,.1-2.03,.63-2.64,3.93-4.56,7.99-9.01,12.04-13.52-1.72-1.07-3.87-2.42-6-3.75-6.03,6.41-7.34,6.34-13.82-.36-2.33,2.35-4.36,5.16-7.07,6.93-3,1.97-6.51,1.85-9.46-.95-4.08,2.62-8.29,3.97-13.09,2.64-4.46-1.23-7.86-3.56-10-7.82-.65-1.29-2.1-2.58-3.46-3.06-8.25-2.92-11.84-9.59-9.38-17.98,.44-1.49,.97-2.96,1.64-4.36,1.7-3.57,2.62-7.15,2.31-11.26-.55-7.27,2.82-12.23,9.63-14.66,3.03-1.08,6.1-1.7,5.9-5.91-.03-.71,.48-1.44,.85-2.46-1.28-.34-2.45-.65-3.61-.95-7.58-1.97-12.98-7.33-18.71-12.15-5.52-4.64-10.94-9.41-16.47-14.04-1.51-1.27-1.46-2.35-.18-3.64,2.09-2.11,4.62-2.68,7.5-2.39,6.46,.66,12.07,3.5,17.68,6.49,5.99,3.19,12.13,6.13,18.21,9.14,.49,.24,1.09,.27,2.3,.54-3.04-2.52-5.61-4.59-8.1-6.74-6.65-5.73-11.82-12.65-16.47-20.05-2.79-4.44-6.18-8.49-9.16-12.81-.58-.83-1-2.41-.59-3.14,.57-1.02,2.06-2.31,3.02-2.21,3.43,.35,7.01,.73,10.16,2.03,12.11,4.98,21.71,13.23,29.63,23.6,2.3,3.01,5.04,5.69,7.88,8.35-1.82-4.21-3.66-8.41-5.46-12.62-3.39-7.95-5.54-16.18-5.65-24.88-.02-1.56-.11-3.17,.23-4.67,.2-.91,1.01-2,1.82-2.34,.58-.24,1.94,.4,2.41,1.05,3.03,4.17,5.94,8.43,8.84,12.69,.8,1.17,1.43,2.45,2.64,3.56-.22-4.12-.43-8.25-.66-12.37-.16-2.82-.54-5.65-.49-8.47,.04-2.37-.99-3.04-3.14-3.09-4.87-.12-9.76-.2-14.61-.63-6.31-.56-10.63-3.83-12.71-10.01-.32-.96-1.71-1.93-2.78-2.2-6.2-1.52-11.74-4.03-15.96-9.07-4.91-5.88-4.78-12.3-2.2-18.96,.82-2.12,.88-3.83,.06-6.06-2.65-7.17-1.25-13.98,2.75-20.35,4.94-7.88,6.83-16.71,7.46-25.79,.18-2.57-1.31-5.21-1.69-7.87-.19-1.35-.06-3.51,.75-4.03,.96-.62,2.95-.2,4.22,.38,1.26,.57,2.17,1.91,3.24,2.9,3.7,3.43,7.04,7.41,11.19,10.16,8.03,5.34,11.39,13.01,12.83,21.99,.15,.93,.28,1.87,.47,3.16,4.55-5.16,7.6-12.07,16.86-9.86-1.81-4.9-3.4-9.71-5.36-14.36-1.16-2.76-2.85-5.32-4.39-7.91-5.23-8.78-10.22-17.71-15.84-26.23-3.47-5.26-7.66-10.12-12.1-14.58-1.05-1.06-4.5-.16-6.68,.46-2.07,.59-3.9,1.99-5.84,3.03l-.55-.74c1.02-.83,1.93-1.87,3.07-2.47,6.21-3.26,12.49-6.38,18.7-9.63,2.06-1.08,4.11-2.25,5.95-3.66,6.87-5.27,12.01-5.92,19.87-2.15,0-1.14-.07-2.19,.02-3.23,.13-1.64-.64-2.2-2.2-2.35-7.96-.73-15.92-1.57-23.88-2.32-9.8-.93-18.65-3.94-25.54-11.41-3.71-4.02-7.44-8.01-11.23-11.95-2.56-2.67-5.07-5.44-9.23-5.62-.8-.03-2.22-1-2.2-1.47,.07-1.24,.44-2.8,1.3-3.59,4.78-4.42,10.17-7.87,16.63-9.31,1.8-.4,3.65-.68,5.49-.73,6.58-.18,12.12,1.71,15.78,8.1-.36-3.57-.59-7.16-1.12-10.71-.48-3.2,.45-4.27,3.65-3.37,6.74,1.91,12.89,4.93,17.64,10.21,3.68-2.12,6.69,1.47,10.12,1.03,.14-3.6-.95-5.55-4.91-6.96-3.64-1.3-7.53-1.86-11.23-3-1.54-.47-2.87-1.59-4.3-2.42,1.23-1.16,2.32-3.06,3.73-3.35,3.4-.69,6.95-.63,10.47-.87-4.27-7.55-10.33-14.15-18.71-18.39-8.68-4.4-17.46-5.01-26.18,.41-.51-4.04,2.84-8.24,9.05-12.09-1.64-2.5-3.11-5.14-4.96-7.47-1.68-2.11-3.08-4.15-3.21-6.98-.03-.75-.98-1.63-1.72-2.16-6.97-4.95-9.16-19.29-5.71-24.9,2.67-4.34,2.84-8.17,2.63-12.88-.38-8.36,7.82-17.98,15.5-19.29,5.22-.89,9.25,1.53,13.09,5.14,1.91-4.08,4.31-7.52,9.37-6.84,5.6,.75,8.22,4.67,9.72,9.63,.24-.03,.5,.01,.58-.09,3.8-4.51,6.76-4.54,10.72-.07,2.95,3.33,3.68,7.39,3.75,11.67,6.91-2.5,10.09-1.62,14.09,4.61,2.24,3.49,3.8,7.41,5.74,11.28,.14-.08,.56-.25,.89-.54,5.46-4.77,10.39-5.37,16.96-2.31,1.33,.62,3.03,.68,4.55,.61,2.18-.09,4.34-.54,6.77-1.38-3.88-1.9-7.67-4-11.64-5.66-11.73-4.9-20.51-13.03-26.56-24.07-1.95-3.56-3.32-7.46-4.61-11.32-.37-1.11,.47-2.63,.76-3.96,1.21,.29,2.79,.18,3.58,.92,6.17,5.69,12.18,11.56,18.28,17.33,4.14,3.92,8.34,7.77,12.93,11.39-1.29-10.92,0-20.95,5.76-30.62,.59,.8,1.07,1.2,1,1.38-1.13,2.88,1.16,4.1,2.53,5.98,2.09,2.88,3.86,6.08,5.28,9.35,3.83,8.83,7.4,17.78,11.08,26.67,.18,.43,.46,.83,.96,1.72,.58-2.46,1.04-4.44,1.5-6.38,4.86,.38,6.95,2.18,8.06,6.62,.28,1.12,.81,2.19,1.23,3.27-1.14-1.64-2.2-3.34-3.45-4.89-.95-1.18-2.15-2.16-3.44-3.43-3.71,9.06-3.31,13.62,1.16,16.23l-1.01-1.92c2.41,1.71,4.78,3.39,7.15,5.07l.56-.72c-1.55-1.86-3.1-3.72-4.64-5.58,2.25,1.31,4.03,3.05,5.86,4.74,2.78,2.55,4.08,2.99,6.86,2.4-1.06-.75-2.09-1.47-3.76-2.65l2.38,.42c-1.11-1.8-2.12-3.42-3.12-5.04,.18-2.36,.9-4.84,.39-7.05-.43-1.87-2.12-3.56-3.52-5.07-1.31-1.41-2.96-2.53-4.51-3.71-10.03-7.57-16.43-24.81-12.58-36.09,1.62-4.75,5.02-8.91,7.82-13.21,.45-.69,2.23-1.16,3.01-.83,.98,.41,2.29,1.83,2.21,2.69-.52,5.18,2.34,9.07,4.59,13.66,6.12-10.05,13.44-16.75,25.85-10.87,7.96-8.71,9.52-9.01,16.94-3.04,1.9-3.89,4.21-7.42,8.22-9.43,4.15-2.08,8.22-2.28,11.68,.31,2.92-1.3,5.45-2.67,8.13-3.58,3.64-1.23,7.01-.15,9.77,2.33,3.41,3.07,7.2,3.89,11.65,3.15,4.51-.75,6.28,.59,7.08,5.17,.29,1.64,.78,2.41,2.48,3.01,4.31,1.53,5.93,5.35,7,9.43,1.29,4.92,.24,9.46-2.33,13.73-1.19,1.99-2.42,3.95-3.79,6.18,1.51,.51,2.74,.94,4.16,1.42,.03-5.47,2.83-9.41,6.17-13.05,1.92-2.08,4.08-3.95,5.93-6.08,2.95-3.39,2.57-6.48-.93-9.3-2.58-2.08-2.41-3.46,.61-4.92,4.37-2.11,9.69-.91,12.54,3.07,5.69,7.94,5.91,16.27,1.21,24.72-1.75,3.14-3.81,6.11-5.73,9.16-.91,1.46-1.82,2.92-2.73,4.38l.56,.57c2.13-1.84,4.55-3.43,6.33-5.55,9.57-11.45,18.98-23.03,28.45-34.56,.74-.9,1.42-1.98,2.38-2.51,.65-.36,1.92-.16,2.59,.29,.46,.3,.53,1.47,.46,2.22-.12,1.42-.8,2.86-.66,4.23,.75,7.75-.86,15.1-3.35,22.35-.24,.69-.41,1.4-.77,2.63,4.61-4.62,9.43-8.01,15.44-8.72,3.6-.42,7.35-.09,10.96,.43,2.32,.33,3.85,.07,5.29-1.87,1.56-2.11,3.42-4,5.22-5.92,.59-.63,1.41-1.04,2.13-1.55l.77,.64c-.68,1.17-1.29,2.4-2.06,3.51-2.55,3.68-5.3,7.23-7.69,11.01-.97,1.53-1.21,3.51-1.99,5.95,5.7-1.93,8.94,.84,12.13,4.48,.89-1.8,1.59-3.26,2.33-4.7,3.46-6.73,12.66-11.06,19.18-9.03,.09,.03,.19,.03,.29,.06,4.31,1.43,4.76,2.73,1.84,6.56,5.77-2.12,11.11-1.99,16.35,.48,7.43,3.49,11.38,9.21,11.35,17.51,0,.87,.1,2.03-.39,2.55-2.32,2.52-.8,4.39,.58,6.62,3.26,5.28,3.06,11.14,2.36,17.03-.29,2.47-.61,4.93-.91,7.4-2.13,2.68-4.27,5.36-6.4,8.04Zm-41.29,303.24l.36,9.83c.37-.02,.73-.05,1.1-.07-.25-2.57-.46-5.14-.78-7.7-.09-.69-.52-1.33-.79-2,2.3-5.23,4.64-10.44,6.86-15.7,.52-1.23,.73-2.62,.91-3.96,1.04-7.78,1.2-15.74,4.54-23.08,.21-.45-.04-1.12-.08-1.68,2.49,.68,1.27,2.62,1.35,4.09,.03,.56-.32,1.12-.38,1.7-.05,.57,.06,1.15,.1,1.7,3.91-3.36,5.73-7.55,5.8-12.57,.26,.63,.06,1.08,.01,1.54-.05,.5,.04,1.01,.12,2.21,4.29-10.08,8.48-19.43,8.87-29.95-1.78,3.52-3.26,7.15-4.64,10.82-.67,1.77-.92,3.73-1.8,5.37-1.43,2.7-3.22,5.22-4.86,7.81-1.53,2.43-3.05,4.87-4.58,7.3-1.23,2.29-2.33,4.67-3.72,6.86-3.18,5-6.62,9.85-9.71,14.9-.95,1.55-1.13,3.56-1.66,5.37l.64,.18c1.27-1.92,2.54-3.84,3.81-5.76l.3,.21c-1.45,3.73-2.89,7.46-4.34,11.19,3.27-4.98,4.88-10.83,9.2-15.07l.75,.38c-1.41,2.87-2.82,5.75-4.24,8.62l.33,.16c1.1-1.59,2.19-3.18,3.29-4.76-.41,2.88-1.23,5.55-2.24,8.14-1.62,4.17-3.39,8.28-5.02,12.44-.15,.38,.29,.99,.46,1.48Zm-4.85-65.03c-.3,1.06-.9,2.13-.85,3.17,.36,8.19,.82,16.38,1.31,24.56,.25,4.26,.64,8.51,1.02,13.6,1.54-2.93,2.46-5.3,3.9-7.29,2.35-3.27,2.53-6.75,2.25-10.57-.83-11.44-6.04-21.64-8.97-32.48-.02-.06-.27-.06-.75-.15,.72,3.17,1.4,6.17,2.09,9.18h0ZM332.76,86.62c2.78,3.5,5.57,7,8.71,10.96,.79-2.58,1.31-4.28,1.93-6.33-4.72,.94-7.42-2.19-10.32-4.92,.37-.12,.81-.43,1.1-.32,3.01,1.17,6,2.4,9,3.62l.54-.79c-4.12-5.11-9.88-8.9-12.69-15.12,2.01,1.46,3.53,3.38,5.25,5.11,1.54,1.55,2.95,3.56,5.71,2.99-4.74-4.05-8.38-8.71-10.6-14.42,1.79,1.69,3.33,3.58,5.06,5.28,1.65,1.63,3.5,3.06,5.27,4.57-7.25-8.13-12.2-17.04-11.28-21.2,3.64,5.63,7.38,11.42,11.12,17.21l.9-.52c-3.29-7.25-6.58-14.5-9.94-21.9-.5,.57-1.17,1.24-1.72,1.99-4.8,6.55-5.66,13.8-3.23,21.35,1.37,4.26,3.45,8.3,5.21,12.44Zm154.32,426.65c-.89-.25-1.79-.51-2.81-.79,1.64,1.92,3.11,3.65,4.59,5.38-6.36-5.22-7.83-5.81-11.26-4.33,2.68,1.94,5.52,3.99,8.36,6.03l-.43,.69c-4.43-2.89-8.8-5.95-14.6-5.69,4.61,3.69,9.23,7.38,13.84,11.07l-.46,.6c-3.45-2.15-6.91-4.3-10.36-6.45l-.51,.57c3.59,4.23,7.18,8.47,10.77,12.7-.21,.23-.42,.47-.62,.7-2.42-1.93-4.84-3.85-7.26-5.78,.96,3.22,2.45,6.18,3.82,9.21,.26,.57,.26,1.55-.08,2.02-.87,1.22-1.99,2.27-3.01,3.39,.31-8.92-4.5-16.07-6.4-24.04-.33,.09-.67,.18-1,.28,2.24,8.54,4.47,17.08,6.8,25.97,9.4-9.08,18.32-17.53,25.24-27.75l-.71-.67c-1.13,1.2-2.25,2.39-3.38,3.59l-.22-.21c2.5-3.16,5-6.32,7.86-9.94l-2.11,.37c.55-.62,.99-1.11,1.43-1.6l-.34-.49-8.41,5.21-.24-.45c2.46-1.83,4.92-3.66,7.38-5.49-5.33,1.32-10.46,2.9-15.55,4.57-.26,.08-.27,.93-.39,1.43l.06-.07Zm-222.54-27.45c-.81,1.79-1.61,3.58-2.6,5.77,5.37-2.85,8.87-6.87,10.96-12,.49-1.2-.25-2.89-.45-4.54-2.44,3.49-4.47,6.39-6.5,9.3,1.32-3.31,2.76-6.58,3.92-9.95,.73-2.12-.55-3.5-2.67-4.86v4.13c-.41-.85-.42-1.7-.41-2.55,.07-5.63-5.19-10.56-10.74-9.9-1.04,.12-2.32,.77-2.91,1.59-1.54,2.15-2.72,3.73-5.83,1.98-2.19-1.23-6.11,1.11-7.19,3.67-1.08,2.56,1.04,3.63,2.49,4.97,1.15,1.05,2.49,1.92,3.51,3.07,2.22,2.51,4.29,5.16,6.93,8.37-1.29-3.01-2.27-5.32-3.26-7.63,.28-.11,.56-.21,.84-.32,1.9,5,3.79,10.01,5.69,15.01h.39v-8.41h.48c.3,2.24,.59,4.49,.97,7.37,3.22-6.74,1.78-13.07,1.1-19.37,2.21,6.86,2.03,13.73,.34,20.7l4.95-6.4Zm80.71,8.12c3.39,4.46,6.36,9.33,10.26,13.29,7.75,7.89,23.64,11.15,31.23,9.89-3.19-1.31-6.91-2.48-10.29-4.29-10.36-5.53-20.42-11.48-25.96-22.63-.26-.53-1.85-.84-2.61-.6-1.49,.47-3.79,.44-3.22,3.14-.48-.36-.99-1.05-1.45-1.03-2.89,.15-5.76,.45-8.66,.71-.75,9.28,.61,19.35,6.14,25.29,2.7,2.9,3.4,3.22,7.42,1.53-5.4-4.87-10.1-10.12-10.73-17.85,4.23,9.35,10.41,16.62,20.42,20.05,9.85,3.37,19.5,2.54,29.15-1.52h-14.3v-.8c3.08,.2,6.16,.4,9.23,.61-1.25-.68-2.55-1.01-3.87-1.23-7.98-1.35-15.53-3.79-21.87-9.05-5.02-4.16-9.05-9.09-10.9-15.51Zm-92.17-243.31c1.72,.66,3.45,1.31,5.17,1.97l.49-.87c-2.6-4.1-8.07-5.02-10.63-9.22,3.35,1.9,6.7,3.8,10.05,5.7,1.49-2.45,1.23-4.19-1.63-5.11-.72-.23-1.36-.75-2.03-1.15-5.16-3.05-9.74-2.43-14.41,1.46-2.35,1.96-5.11,3.47-7.81,4.95-2.76,1.51-5.69,2.72-9.51,4.51,15.97,12.51,23.16,30.76,34.91,45.6l.75-.44c-2.27-3.78-4.55-7.57-6.82-11.35l.51-.38c1.8,1.71,3.6,3.42,5.8,5.51-1.41-5.82-6.32-8.71-8.53-13.4,2.55,1.89,5.1,3.79,7.96,5.9,0-.87,.19-1.47-.03-1.76-1.6-2.17-2.97-4.65-4.99-6.34-6.28-5.23-12.84-10.11-19.21-15.22-.88-.71-1.34-1.95-1.99-2.94,1.13,.03,2.46-.32,3.34,.16,4.42,2.41,8.87,4.82,13.03,7.64,3.58,2.42,6.8,5.37,10.42,8.29,.27-4.76-4.53-5.79-6.13-9.65,2.27,1.82,4.09,3.28,6.02,4.83,.19-3.46,.24-3.52-2.33-5.35-7.16-5.09-14.63-9.59-23.19-12.02,9.49,.67,17.54,5.44,26.12,8.88-6.72-5.52-14.67-8.65-22.61-11.85,8.1,1.42,15.04,5.83,22.63,8.92-.77-1.35-1.81-2.31-2.93-3.15-2.32-1.73-4.7-3.4-7.05-5.09l4.64,.98Zm14.55-117.6c3.37-3.44,8.3-5.73,8.32-11.61,0-1.45,.41-2.9,.49-4.36,.4-7.71-1.3-14.96-5.63-21.34-3.05-4.49-6.66-4.56-10.49-.89-.97,.93-2.07,1.7-3.12,2.55-.27-1.62,.01-2.72,.37-3.8,1.56-4.71,.13-10.1-3.5-13.02-2.91-2.34-4.37-2.13-6.39,1.01-1.06,1.65-2.03,3.36-3.04,5.05-.94-1.69-.89-3.28-1.42-4.66-.88-2.29-1.73-4.8-3.3-6.58-2.14-2.43-6.87-2.55-8.86-.84-2.84,2.42-3.04,4.79-.84,8.54,.88,1.51,1.79,3.04,2.42,4.67,1.83,4.77,3.51,9.59,5.17,14.16,2.43-6.1,1.27-12.71,.71-19.29l1.18,.05-1.12,25.35c1.16-1.09,2-2.34,2.53-3.71,.54-1.42,.77-2.95,1.13-4.43l.33,.06c-.28,3.01-.56,6.02-.88,9.44,3.92-6.72,5.56-13.61,5.35-20.97,.69,7.16,.15,14.13-3.31,20.69l.74,.37c2.9-3.51,5.79-7.02,8.69-10.54l.44,.26c-2.48,3.94-4.97,7.88-7.74,12.28,5.36-3.36,10.44-6.55,15.76-9.89-4.35,5.49-10.23,8.79-15.32,13.2,3.19-1.39,6.38-2.78,9.56-4.18l.26,.6c-3.38,1.62-6.76,3.25-10.92,5.24,7,.26,11.84-3.42,17.07-5.92l.47,.97c-4.5,2.37-9,4.75-13.42,7.08,7.68-.53,15.38-1.54,22.5-5.19-5.88,5.24-13.33,5.76-20.61,7.21,6.74,1.2,13.48,2.4,20.22,3.6l-.15,.77c-5.22-.55-10.44-1.1-14.97-1.58,3.62,3.08,7.5,6.37,11.35,9.65-.82-.47-1.65-.91-2.46-1.4-3.81-2.31-7.62-4.64-10.56-6.43,3.04,3.21,6.62,6.98,10.31,10.87,.71-.81,1.7-1.92,2.69-3.04Zm152.34,360.55c-1-3.56,.94-6.19,2.8-8.85,.39-.56,.99-1.09,1.1-1.7,.24-1.33,.69-2.9,.22-4.03-1.39-3.34-4.16-4.91-7.79-5.16-3.67-.25-6.66,.84-8.19,4.26-1.2,2.7-2.18,5.58-2.71,8.47-.84,4.59-1.23,9.27-1.8,13.92l.57,.07c.72-1.69,1.45-3.38,2.17-5.07-.6,3.63-2.02,7.1-.87,11.21,2.15-3.71,4.07-7.03,5.99-10.35l.54,.24c-.34,1.82-.69,3.64-.95,5,2.87-2.58,5.92-5.33,8.98-8.07-2,3.67-4,7.34-6.01,11.02l.64,.45c4.01-3.1,8.02-6.19,11.35-8.76-3.24,3.8-6.98,8.18-9.5,11.12,7.8-5.15,17.05-11.79,29.16-10.96-11.96,2.15-22.24,6.91-25.61,12.09,2.46-1.21,4.92-2.42,7.38-3.64l.18,.39c-4.56,2.82-9.12,5.63-13.67,8.45l.33,.7c11.09-4.17,22.56-6.31,34.37-6.63-5.67,1.29-11.42,2.15-17.13,3.23-8.36,1.58-13.51,3.66-15.7,6.05,9.31-1.89,18.67-2,28.03-.04-2.42,.05-4.85-.11-7.27-.17-2.44-.06-4.88-.07-7.32,.01-2.53,.09-5.07,.2-7.59,.51-2.28,.28-4.53,.83-6.79,1.27,11.74-.54,23.14,.46,34.07,4.98-9.55-1.29-18.99-3.85-28.78-2.35,4.22,.61,8.55,.69,12.66,1.67,4.05,.97,7.87,2.85,11.94,4.38,2.83-1.55,6.27-3.17,9.42-5.22,6.73-4.39,8.81-9.7,7.23-17.49-.25-1.24-.62-2.51-.58-3.75,.27-8.47-7.36-13.4-15.01-13.24-2.4,.05-3.71-.63-2.96-3.38-1.47-.27-2.7-.65-3.93-.69-3.42-.1-6.81-.07-9.66,2.39-3.05,2.63-6.21,5.13-9.31,7.68Zm-36.02-397.02c-1.39-.33-2.76-.83-4.16-.94-3.06-.25-6.13-.31-9.19-.44v-.5h7.05c-7.07-1.59-13.89-3.48-19.68-7.98,7.04,3.62,14.4,6,21.52,6.25-5.12-3.11-10.73-6.64-16.47-9.94-1.82-1.04-3.94-1.72-6-2.13-4.37-.86-7.97,2.6-7.26,6.86,.37,2.25,.26,4.08-1.75,5.7-1.57,1.26-2.6,3.25-.67,5.04,2.08,1.93,2.08,3.89,1.04,6.29-.52,1.21-.78,2.65-.73,3.97,.13,3.57,3.33,5.59,6.57,4.45,.95-.34,2.07-.19,3.11-.26-.1,1.23,.04,2.54-.34,3.68-.78,2.38-2.15,4.6-2.71,7.02-.96,4.16,2.37,7.85,6.45,7.15,3.75-.64,6.69-.22,9.31,2.99,2.09,2.56,5.46,1.88,6.81-.46-1.93-.83-3.91-1.69-5.88-2.55l.34-.81c1,.31,1.98,.68,3,.9,4.24,.91,6.85-.52,7.58-4.66,1.04-5.87,4.06-10.42,8.39-14.33,2.15-1.94,4.05-4.16,6.09-6.29-1.51-1.65-3.01-.92-4.55,.11-7.1,4.75-13.15,10.53-17.88,18.63,1.02-5.94,5.05-9.16,7.93-13.08-3.09,1.62-5.91,3.56-8.97,5.02-2.89,1.38-6.02,2.24-9.04,3.34l-.26-.69c10.75-3.45,19.08-10.75,27.86-17.45-7.84,1.12-14.22,5.96-21.63,8.09,3.25-1.68,6.51-3.37,9.76-5.05-6.94,.82-13.66,2.47-20.79,1.23,4.63-.52,9.04-.91,13.41-1.54,4.36-.63,8.73-1.34,13.15-4.28-7.39,.56-14.05,1.06-20.58,1.56,6.35-1.46,12.75-2.93,19.15-4.4,.01-.16,.02-.32,.04-.48Zm186.89-4.87l.12,.14c-5.03,5.15-9.47,10.69-11.54,17.87,4.27-7.11,10.39-11.73,18.21-14.12-4.6,4.03-10.18,7.05-13.07,13.33,3.18-1.99,6-3.76,8.81-5.52l.28,.4c-3.03,2.88-6.06,5.77-9.09,8.65l.34,.49c3.4-.96,6.81-1.91,10.21-2.87l.16,.47c-3.07,1.11-6.14,2.21-9.36,3.38,3.89,0,7.6,.14,11.29-.04,3.56-.17,7.1-.67,10.66-1.03,.05,.38,.1,.77,.15,1.15-7.52,1.2-15.03,2.39-23.5,3.74,6.17,1.62,11.64,3.05,17.11,4.48l-.05,.4-16.58-2.45-.19,.38c5.5,2.44,11.01,4.88,16.51,7.33l-.25,.71-17.6-6.16-.16,.25c2.64,2.09,5.27,4.19,7.91,6.28l-.35,.48c-3.44-2.16-6.88-4.31-10.31-6.47l-.68,.77c2.87,2.82,5.69,5.69,8.62,8.43,2.87,2.68,6.36,4.06,10.27,4.43,3.29,.31,5.43-1.5,7.51-3.73,1.91-2.05,.49-3.46-.52-5.07-.17-.27-.02-.74-.02-1.32,.82-.05,1.67-.34,2.31-.08,1.78,.72,2.45-.25,3.04-1.62,3.01-7.04,2.75-16.08-3.48-21.94-.97-.91-1.78-1.97-2.94-3.27,1.23-.6,2.17-.89,2.9-1.45,.8-.62,1.92-1.43,2.01-2.26,.44-3.84,.3-7.65-2.6-10.71-10.22-10.8-23.91-6.7-30.1,3.15-1.53,2.44-1.97,5.58-2.91,8.4l.85,.29c.87-1.59,1.74-3.19,2.52-4.61-.91,3.96-1.83,8.01-2.75,12.06l.91,.26c2.51-4.5,5.03-8.99,7.54-13.49l.83,.45c-3.8,5.33-6.47,11.08-6.64,17.75,1.01-1.65,1.75-3.43,2.66-5.12,2.71-5.02,6.05-9.51,10.99-12.58Zm-125.45,7.17c-6.73-6.91-15.24-6.32-23.73-5.77,8.37,1.93,14.46,4.6,15.97,6.75-4.16-1.22-8.88-2.6-13.6-3.98l-.22,.79c9.43,5.14,12.69,7.83,13.77,11.57-5.92-7.01-13.04-10.79-22.97-9.87,1.39,.71,2.16,1.06,2.89,1.48,6.24,3.51,12.19,7.42,16.32,13.45,2.67,3.9,2.84,7.52,.71,11.01-.05-.69-.16-1.14-.11-1.56,.72-5.26-1.56-9.19-5.3-12.63-4.77-4.39-10.38-7.28-16.55-9.94,3.89,9.66,13.1,16.55,12.62,27.79-1.41-10.54-10.23-16.76-14.45-25.61-2.63,8.63,2.32,15.67,4.28,23.32-4.76-6.63-8.27-13.61-6.8-22.16-3.18,4.16-3.25,9.06-3.45,13.99-1.6-3.85-1.14-7.81-.76-11.83-3.51,7.4-4.69,15.42-6.19,23.35l-.79-.16c1.43-7.35,2.85-14.7,4.18-21.56-1.61,3.24-6.07,3.79-8.77,6.74-2.83,3.08-6.25,5.66-6.83,9.15,1.5,2.41,2.67,4.07,3.62,5.86,1.91,3.58,3.35,7.49,5.72,10.73,1.04,1.42,3.86,2.06,5.9,2.1,2.47,.05,3.41-2.33,3.99-4.44,.43-1.59,.44-3.29,.86-4.89,.19-.74,.82-1.76,1.43-1.9,.79-.17,1.82,.27,2.59,.71,.54,.31,.84,1.05,1.25,1.59,3.04,4.01,5.92,4.33,9.52,.8,1.99-1.95,4.03-3.25,6.95-3.04,.78,.05,1.67-.74,2.42-1.28,1.98-1.42,3.91-2.91,6.15-4.59,.57,3.89-1.65,5.1-4.09,6.04-1.89,.73-4.22,.83-5.68,2.02-3.07,2.51-5.98,4.91-10.68,4,2.98,3.05,5.75,2.82,9.37,.31,2.41-1.67,5.08-3.36,7.87-3.96,3.8-.83,6.04-2.82,7.48-6.17,1.61-3.74,2.25-7.39-.08-11.16-.45-.73,.08-2.08,.17-3.15,.91,.23,2.01,.22,2.71,.74,3.2,2.38,6.76,1.08,8.22-2.83,.54-1.45,1.73-2.95,3.03-3.77,3.08-1.95,5.59-8.31,4.31-11.84-4.02-11.07-17.76-17.72-28.78-13.84-5.56,1.96-10.44,4.98-14.48,9.98,5.57,0,10.71-.23,15.82,.06,5.81,.33,11.08,2.1,14.34,7.5l-.12,.1Zm91.53,386.28c3.29,2.76,6.58,5.52,9.87,8.27,.27-.25,.54-.5,.81-.76-2.99-3.74-5.99-7.48-8.98-11.23l.33-.25,9.01,9.44,.38-.35c-2.99-5.17-5.98-10.34-8.97-15.5l.43-.19c2.76,3.69,5.51,7.38,8.27,11.06l.6-.43c-.44-2.03-.88-4.06-1.32-6.09l.38-.11c1.3,2.11,2.59,4.23,3.89,6.34l.67-.34c-1.36-4.36-2.72-8.73-4.08-13.09-.06-.18-.13-.37-.22-.54-1.37-2.63-3.06-5.14-4.04-7.91-.95-2.69-2.65-3.09-4.7-2.13-4.81,2.25-8.14,6.11-10.63,10.74-.49,.29-1.09,.47-1.44,.87-4.49,5.26-9.55,9.87-15.34,13.67-.4,.27-.76,.61-1.11,.95-1.68,1.62-1.78,2.94,.33,4.47,4.06,2.92,3.98,3.26-.08,6.36-2.67,2.04-3.55,6.98-1.31,9.07,1.47,1.37,1.83,2.84,1.33,4.41-1.4,4.39,1.23,6.64,4.4,8.38,1.81,.99,4,1.43,6.07,1.78,2.97,.49,3.75,1.53,2.63,4.34-.46,1.16-1.22,2.2-1.79,3.33-.71,1.39-1.36,2.81-2.28,4.73,4.77-1.43,8.85-3.25,12.09,1.05,6.27-2.51,6.42-2.48,8.85,1.5,1.98,3.23,3.09,3.63,6.28,1.42,2.06-1.42,3.8-3.33,5.56-5.13,2.55-2.61,3.74-2.44,5.23,.97,.55,1.25,1,2.54,1.58,3.76,1.42,3.01,2.84,3.59,6.06,2.94,5.49-1.11,9.49-4.76,13.8-7.9,4.11-3.01,8.05-6.24,10.31-10.95,.62-1.29,1.25-3.36,.65-4.28-1.49-2.3-1.07-4.01,.61-5.65,4.07-3.98,4.54-8.98,3.75-14.12-.78-5.13-8.01-10.46-12.94-9.18-4.13,1.08-8.05,3.19-11.87,5.2-1.44,.76-2.33,2.54-3.44,3.81,3.73,.83,6.96,1.5,10.17,2.28,5.99,1.46,8.16,2.63,10.04,5.25-4.5-3.56-12.67-4.77-17.18-4.11,12.01,5.43,18.95,12.88,18.23,19.57-3.95-11.54-11.58-17.75-20.81-16.79,8.09,5.48,15.06,11.57,14.17,23.11-1.98-11.43-7.35-18.23-16.25-21.02,7.8,12.08,11.14,24.24,7.8,30.06,1.59-11.39-3.72-19.98-9.7-29.23,1.39,10.08,4.46,19.25,2.62,27.51-1.23-8.04-2.65-17.25-4.06-26.47l-.82,.02c-.91,5.29-1.83,10.58-2.74,15.87l-.48-.08c.39-4.77,.78-9.53,1.17-14.3l-.83-.2c-1.41,3.07-2.83,6.13-4.24,9.2l-.29-.15c.75-2.39,1.5-4.78,2.26-7.16l-.92-.44c-2.65,4.58-5.3,9.16-7.95,13.74l-.38-.21c1.78-3.81,3.56-7.63,5.34-11.44l-.29-.19c-1.85,2.27-3.69,4.55-6.01,7.4,.49-1.51,.76-2.35,1.12-3.44-4,3.16-7.68,6.07-11.35,8.98,5.29-5.39,11.44-9.87,14.97-16.41-5.43,3.86-11.05,7.85-16.67,11.85l-.46-.66c4.93-3.77,9.86-7.55,14.79-11.32l-.24-.27c-6.47,2.92-12.94,5.85-19.41,8.77l-.2-.47c5.75-3.17,11.5-6.34,17.25-9.5l-.32-.56c-7.04,1.82-14.08,3.64-21.12,5.46l-.19-.79c7.49-1.85,15.17-3.13,22.01-6.98-4.36,.5-8.64,1.35-12.96,1.83-4.44,.49-8.92,.62-13.38,.91,4.4-.82,8.83-1.17,13.21-1.89,4.37-.72,8.68-1.83,13.02-2.76l-.1-.34c-5.97,.32-11.95,.63-17.92,.95v-.26c4.35-.39,8.72-.79,13.09-1.18l-.08-.64c-6.56-.4-13.13-.81-19.69-1.21l.04-.67c5.64,.35,11.28,.71,16.92,1.06l.05-.62c-4.52-1.12-9.04-2.23-13.56-3.35l.15-.43c4.99,.76,9.98,1.53,14.97,2.29,.04-.28,.07-.55,.11-.83-5.34-2.43-10.98-4.37-15.25-8.47,5.38,2.36,10.82,4.73,14.82,6.49-2.37-2.99-5.47-6.9-7.51-9.47,9.16,7.61,11.86,9.28,16.12,9.43-1.1-.95-2.01-1.64-2.81-2.44-2.67-2.65-5.3-5.33-7.94-8Zm-144.94-17.78c.51-.7,.98-1.44,1.53-2.1,2.97-3.6,8.68-5.07,12.06-2.12,3.24,2.84,6.78,3.33,10.58,3.84,.76,.1,1.54,.31,2.24,.62,5.53,2.45,11.31,2.46,17.21,2.1,4.37-.26,8.79-.3,13.15,.03,10.4,.78,20.77,2.31,31.22,.75,15.92-2.36,28.54-9.59,35.67-24.6,3.95-8.32,4.59-17.28,4.03-26.32-.5-8.08-1.6-16.14-1.81-24.22-.2-7.59-.29-15.3,.84-22.77,1.87-12.46,3.89-24.86,3.53-37.49-.08-2.74-.58-5.69-1.75-8.13-2.11-4.42-2.67-8.74-.86-13.25,4.58-11.46,3.09-23.27,1.77-34.96-1.11-9.85-3.85-19.54-4.52-29.4-.69-10.16-.26-20.48,.61-30.65,.84-9.87,3.3-19.59,4.26-29.45,1.99-20.61-6.63-36.22-24.07-46.85-12.72-7.75-26.74-8.16-41.06-5.93-7.97,1.24-15.98,2.2-23.96,3.37-1.11,.16-2.32,.53-3.22,1.18-5.31,3.81-10.9,3.81-16.58,1.2-1.93-.89-2.56-.25-3.67,1.23-1.58,2.1-3.37,4.43-5.62,5.57-3.5,1.77-6.98,.16-9.59-2.41-3.09-3.04-5.79-6.47-8.7-9.79-.12,.06-.38,.18-.62,.33-5.7,3.73-11.47,5.96-17.74,1.12-.47-.36-1.48-.3-2.14-.1-8.03,2.37-16.23,2.01-24.39,1.27-8.83-.81-17.56-2.22-26.52-1.5-16.08,1.3-30.03,11.63-35.4,26.91-2.87,8.15-3.34,16.6-2.78,25.12,.94,14.21,2.54,28.4,2.89,42.62,.3,12.17-.57,24.38-1.25,36.55-.42,7.48-1.69,14.92-2.12,22.4-.42,7.16,.4,14.21,3.81,20.75,1.76,3.37,1.82,6.97,.72,10.53-4.07,13.11-3.43,26.47-1.6,39.73,1.58,11.46,2.26,22.87,1.79,34.42-.5,12.09-1.1,24.21-.78,36.3,.29,10.94,4.75,20.4,13.32,27.59,8.32,6.98,18.15,9.62,28.76,9.6,12.4-.02,24.8-.23,37.2-.57,2.32-.06,4.77-.81,6.9-1.8,8.71-4.06,17.4-5.39,26.68-.75Zm51.54-337.34l.17,.72c2.05-.37,4.11-.74,6.16-1.13,12.33-2.34,24.73-3.83,37.11-.85,19.59,4.71,33.43,16.4,40.22,35.5,3.74,10.53,2.8,21.65,1.21,32.48-2.05,14.02-3.93,28.06-3.38,42.23,.38,9.91,.99,19.91,2.71,29.65,2.67,15.14,3.45,30.15,1.11,45.37-.41,2.68,.22,5.54,.48,8.31,.26,2.79,1.09,5.6,.92,8.36-.76,12.74-2.1,25.46-2.62,38.21-.48,11.99-.22,24-.23,36.01,0,10.24,.58,20.51,0,30.72-.66,11.31-4.99,21.36-13.33,29.38-9.8,9.42-22.02,12.86-35.06,12.93-11.29,.06-22.59-1.2-33.89-1.88-3.79-.23-7.59-.47-11.38-.7,.16,.72,.37,.91,.6,.95,7.07,1.32,14.18,2.46,21.21,3.97,13.25,2.85,26.49,4.2,40.03,2.04,15.19-2.43,26.69-9.82,33.82-23.6,6.65-12.87,8.36-26.64,7.23-40.88-.81-10.21-2.08-20.4-2.49-30.62-.71-17.66-.84-35.35-1.36-53.02-.12-4.07-.85-8.12-1.2-12.19-.21-2.41-.42-4.85-.29-7.26,.41-7.3,1.26-14.59,1.43-21.9,.4-16.6,.02-33.23,.85-49.8,.8-15.86,2.49-31.7,4.22-47.5,1.58-14.41,1.42-28.66-2.69-42.62-4.48-15.22-13.98-25.86-29.72-29.62-5.9-1.41-12.18-1.43-18.3-1.66-10.36-.37-20.2,2.79-30.15,5.08-4.48,1.03-8.93,2.22-13.39,3.34Zm-90,348l-.15-1.09c-1.99-.19-3.98-.55-5.97-.55-8.3-.03-16.61,.2-24.91,.01-5.83-.13-11.73-.34-17.46-1.31-18.38-3.12-33.23-20.36-33.58-39.01-.19-9.95,.07-19.93,.53-29.87,.82-17.82-1.4-35.46-2.4-53.18-.64-11.4-1.47-23.02,1.68-34.34,.2-.7,.1-1.59-.15-2.29-3.69-10.47-3.41-21.33-2.92-32.14,.46-10.23,1.52-20.42,2.17-30.65,1.11-17.6-.25-35.13-1.66-52.66-.85-10.61-1.37-21.22,.21-31.85,3.53-23.77,20.33-37.44,43.86-37.96,11.41-.25,22.83,.49,34.25,.76,2.57,.06,5.14,0,7.71,0l.09-1c-.68-.31-1.32-.77-2.04-.92-16.91-3.62-33.91-6.55-51.3-5.36-8.73,.6-16.8,3.47-23.64,9.05-8.63,7.04-12.98,16.65-15.26,27.26-3.73,17.33-2.54,34.73-.34,52.13,1.32,10.44,3.18,20.87,3.64,31.35,.58,12.96-.16,25.98-.09,38.97,.04,8.19,.41,16.38,.8,24.56,.19,3.88,1.05,7.74,1.08,11.61,.02,3.56-1,7.13-.98,10.69,.13,25.09-.03,50.14-3.51,75.08-2.16,15.51-1.06,30.88,4.02,45.9,6.09,18.03,19.27,32.59,43.57,31,12.36-.81,24.73-1.51,37.08-2.42,1.92-.14,3.78-1.17,5.67-1.79Zm40.1,55.13c-.97,.68-1.29,.79-1.42,1.01-4.18,7.15-8.36,14.29-12.46,21.48-.51,.89-.95,2.09-.78,3.03,.88,4.94,2.41,9.67,5.81,13.5,3.04,3.42,6.98,4.51,11.42,3.61,4.27-.87,6.42-3.74,7.09-7.9,.06-.38,.09-.85,.32-1.1,.61-.67,1.28-1.68,2.01-1.75,.71-.06,1.75,.71,2.22,1.4,1.14,1.69,1.98,3.58,3.04,5.32,3.41,5.56,4.59,6.07,11.01,4.87,7.16-1.34,9.35-5.66,6.41-12.37-.64-1.46-.92-3.15-1.01-4.76-.04-.65,.76-1.6,1.42-1.93,.39-.2,1.42,.4,1.88,.9,1.05,1.14,1.88,2.49,2.89,3.67,2.21,2.59,5.1,2.52,8.06,1.84,2.95-.67,4.35-2.71,4.71-5.61,.43-3.52-.2-6.61-3.36-8.73-1.85-1.24-2.51-2.7-1.58-4.97,.87-2.12,2.53-1.83,4.13-1.9,3.09-.14,5.21-1.88,6.3-4.5,1.07-2.58-1.27-3.91-2.71-5.61-2.69-3.18-6.59-4-10.07-5.62-4.49-2.09-9.32-2.53-15.04-2.54,2.81,1.8,4.9,3.04,6.88,4.44,1.99,1.4,3.92,2.91,5.78,4.47,1.76,1.48,3.39,3.1,5.08,4.66-7.19-4.63-13.47-10.73-22.73-11.29,5.69,4.88,11.39,9.75,17.08,14.63l-.33,.38c-7.38-5.08-14.77-10.16-22.15-15.24,.91,5.66,4.91,9.05,8.3,12.83l-.66,.55c-3.04-3.39-6.08-6.78-9.12-10.18,2.4,9.91,9.57,16.92,15.29,24.8l-.74,.57c-5.89-7.08-11.78-14.15-17.45-20.96,.02,.1,.06,.69,.27,1.21,2.28,5.68,4.65,11.31,6.85,17.02,1.88,4.88,3.68,9.8,5.22,14.8,.4,1.3-.27,2.93-.46,4.41-.79-13.21-10.09-22.66-14.44-34.15,1.01,7.1,2.02,14.21,3.03,21.31-.25,.04-.49,.09-.74,.13-3.01-6.79-4-14.12-4.85-21.48-.31,.03-.61,.05-.92,.08-.52,8.63-1.05,17.27-1.57,25.84-1.82-8.87-1.33-17.94-.86-27l-.95-.18c-2.26,10.71-4.51,21.41-6.77,32.12-.65-11.3,2.56-22.08,4.12-33.16-5.61,7.03-8.64,15.38-13.07,22.95,1.06-8.8,5.69-16.22,9.6-24.85Zm-162.4-10.89l-.24-.26c4.83-3.93,9.65-7.86,14.48-11.79l-.28-.29c-6.1,2.08-12.2,4.16-18.29,6.24,6.64-3.42,13.81-5.76,20.05-9.9l-.43-1.26c-8.13,1.92-16.25,3.84-24.38,5.76l-.14-.48c7.77-2.53,15.54-5.06,23.31-7.59l-.11-.28-7.68,.94-.1-.64c2.88-.59,5.75-1.18,8.63-1.77l-.05-.84h-17.01v-1.3h18.99l.14-1.43-12.52-2.53,.1-.63c4.57,.37,9.15,.75,13.72,1.12-6.32-3.62-13.3-4.81-20.48-5.22,7.13-.97,13.86,.84,20.5,3.24l.29-.82c-2.94-1.61-5.88-3.21-8.82-4.82l.13-.32c2.03,.46,4.05,.91,6.28,1.41-.95-1.53-1.71-2.88-2.59-4.14-2.5-3.59-4.88-7.28-7.62-10.68-1.81-2.24-4.52-2.18-7.14-.46-2.33,1.53-2.24,3.39-.85,5.49,.12,.19-.02,.55-.06,1.08-2.2,.82-4.47,1.61-6.7,2.52-7.11,2.89-9.61,7.56-7.94,15.07,.67,3.02,.25,5.69-1.19,8.42-1.26,2.39-2.4,4.92-3.09,7.52-1.59,5.98,2.71,12.02,8.17,11.24,3.27-.47,3.91,1.08,4.33,3.49,.85,4.82,3.96,7.51,8.48,8.56,3.94,.91,7.79,.96,10.28-3.22,.32-.53,1.35-1.01,1.92-.89,.48,.1,.76,1.11,1.16,1.7,.51,.76,.9,1.9,1.61,2.16,2.42,.9,5.04,.75,6.77-1.24,2-2.3,4.73-4.33,3.97-8.2-.83-4.26-1.27-8.61-1.82-12.93-.12-.96-.02-1.95-.02-2.92l-.97-.11c-1.01,3.59-2.03,7.17-3.04,10.76l-.35-.05c.59-3.75,1.18-7.5,1.9-12.06-3.45,5.7-6.5,10.72-9.54,15.73l-.53-.3c2.55-4.89,5.1-9.78,7.65-14.66-6.36,3.89-12.64,7.73-18.92,11.58Zm-4.56-408.01c-7.17-5.92-14.42-8.36-22.89-5.78,10.62-3.93,19.3-.29,27.17,7.03-4.46-5.79-9.56-10.74-15.52-14.81,6.29,1.97,10.42,6.78,14.95,11.15-2.91-7.09-7.14-13.3-12.49-18.85,2.14,1.63,4.03,3.52,5.74,5.55,1.82,2.15,3.64,4.34,5.18,6.7,1.41,2.15,2.45,4.54,3.77,7.04-.19-8.68-4.4-15.43-9.07-21.99,6.36,5.63,10.62,12.33,11.28,21.07,.46-2.21,.68-4.34,.42-6.42-.93-7.45-3.9-14.19-7.65-20.6-.56-.96-1.58-1.66-2.41-2.46-.73-.71-1.69-1.27-2.19-2.11-1.48-2.5-3.68-3.68-6.46-3.86-6.52-.44-11.86,3.18-14.93,10.06-1.71,3.82-1.81,7.49,.85,11.01,2.45,3.24,2.12,4.71-1.63,6.46-2.14,1-3.86,2.39-3.7,4.74,.27,4.03,.98,8.03,1.64,12.03,.09,.57,.87,1.3,1.46,1.46,2.31,.59,4.45,.46,6.57-1.11,1.33-.99,3.21-1.65,4.88-1.72,5.14-.22,10.3-.08,15.73-.08-2.98-1.65-5.73-3.97-8.84-4.68-3.57-.81-7.46-.19-11.21-.19,6.24-3.01,12.47-1.9,19.36,.38Zm151.1,417.82c-5.67,1.02-11.73,2.11-17.79,3.2l-.12-.7c3.52-.71,7.1-1.18,10.53-2.18,3.39-.99,6.62-2.52,9.92-3.82-2.68-.19-5.13,.35-7.61,.61-2.61,.26-5.25,.42-7.87,.3-2.36-.11-4.69-.67-7.03-1.03,7.12,.53,14.1,.59,21.04-2.01-3.8-.24-7.43-.24-10.99-.74-3.64-.51-7.19-1.62-10.82-2.23-1.25-.21-2.98-.18-3.87,.53-2.86,2.29-5.99,4.55-7.99,7.52-4.76,7.08-2.16,14.31,5.77,17.29,1.46,.55,1.76,1.15,1.66,2.76-.17,2.96-.13,6.04,.49,8.93,.85,4,1.76,4.34,5.92,4.42,1.26,.02,2.85,.19,3.71,.95,1.68,1.49,2.55,4.36,5.47,3.51,2.29-.67,4.46-1.86,6.52-3.09,.77-.46,1.52-1.72,1.5-2.6-.15-6.24,2.47-11.52,5.44-16.7,1.08-1.87,2.14-3.76,3.21-5.64l-.4-.2-15.74,14.65-.37-.44,21.86-23.63-.77-.72c-2.44,2.44-4.76,5.02-7.35,7.29-2.7,2.37-5.6,4.54-8.52,6.64-2.71,1.94-5.58,3.66-8.38,5.48,3.08-2.97,6.56-5.33,9.79-7.97,3.17-2.59,6.1-5.48,9.13-8.24l-.53-.64c-7.94,5.38-16.06,10.36-25.69,12.14,10.33-2.92,19.03-8.65,27.19-15.4-10.23,5.61-20.87,9.64-32.73,9.61,9.14-1,17.84-3.38,25.42-7.83Zm13.76-452.06l.67-.39c-1.82-9.67-6.23-18.28-11.09-26.7-.38-.65-1.04-1.18-1.65-1.64-2.27-1.72-4.14-1.6-5.76,.7-1.27,1.81-2.05,3.95-3.17,5.87-.82,1.4-1.85,2.67-2.79,4-.92-1.13-2.04-2.15-2.73-3.41-2.41-4.46-5.89-6.27-10.34-4.71-8.19,2.88-11.52,13.16-6.28,21.48,.27,.42,.9,.72,1.41,.85,6.77,1.79,13.36,3.94,19.18,8.06,3.95,2.81,8.16,5.2,13.65,5.92-6.4-5.28-13.03-9.58-17.01-14.74,4.94,3.59,10.84,8.01,16.91,12.2,1.66,1.15,3.8,1.61,5.72,2.39l.22-.63c-2.23-1.72-4.45-3.44-6.68-5.17l.2-.28c3.03,1.76,6.07,3.51,9.1,5.27l.79-1.12c-1.51-1.34-3.08-2.62-4.53-4.03-1.39-1.36-2.71-2.81-3.97-4.3-1.23-1.45-2.36-3-3.53-4.5l.69-.56c3.4,3.71,6.8,7.43,10.19,11.14l.87-.72c-3.01-5.32-6.02-10.64-9.03-15.97l.62-.38,8.31,11.33Zm160.17,165.1l.21,1.01c5.56-.89,10.34,1.36,15.22,3.35,4.82,1.96,9.78,3.51,14.97,1.25,5.72-2.49,9.75-6.74,12.25-12.39,1.61-3.64,0-7.5-3.77-8.75-2.85-.95-2.56-2.44-1.41-4.38,.59-1,1.36-1.91,1.97-2.9,2.52-4.12,5.6-8.02,7.37-12.44,2.07-5.14,2.45-11.02,7.74-14.57-4.5-1.5-8.3-.42-11.93,1.46-11.22,5.81-21.83,12.45-30.18,22.18-1.13,1.32-2.59,2.36-3.85,3.59-2.08,2.02-4.31,3.93-6.13,6.17-3.88,4.75-7.61,9.62-11.25,14.55-1.23,1.67-2,3.67-2.98,5.52,.33,.19,.66,.38,.99,.56,2.08-2.96,4.15-5.91,6.23-8.87l.75,.46-.75,4.1,.64,.27,8.9-17.94,.99,.42c-1.34,4.42-2.67,8.85-4.09,13.55,4.94-1.08,7.38-3.83,7.98-8.11,.37-2.59,.32-5.24,.57-7.84,.08-.82,.55-1.6,.84-2.4,.48,.74,1,1.45,1.42,2.23,.22,.41,.22,.94,.36,1.4,.15,.46,.35,.89,.61,1.54,2.24-4.99,2.01-10.76,6.92-15.16-.59,2.48-.99,4.13-1.38,5.77l.81,.45c2.89-4.38,5.77-8.76,8.66-13.14l.52,.22-1.02,3.67c3.74-1.2,6.88-2.38,8.98-6.11,1.98-3.51,5.85-5.27,9.89-5.92,.21,.28,.42,.55,.64,.83-2.71,2.55-5.43,5.1-8.5,7.98h6.81l.18,1.06c-4.73,1.39-9.47,2.78-14.2,4.17l.26,.7c1.88,.17,3.77,.34,5.65,.51-4.72,.61-9.56,.41-13.28,4.42,3.79-.28,7.26-.03,10.31,2.07-3.23,.11-6.42-.29-9.57-.13-3.46,.18-6.13,2.71-6.87,5.82,1.17,0,2.42-.28,3.49,.05,2.82,.88,5.62,1.9,8.29,3.15,.63,.3,.73,1.74,1.07,2.65-1.06,.22-2.11,.56-3.17,.6-.47,.02-.98-.55-1.43-.92-2.81-2.32-6.11-2.3-9.45-1.88-.51,.06-.94,.8-1.41,1.22l.28,.62h5.77l-.03,.21-6.72,1.07,.09,.84c1.52,.26,3.06,.42,4.55,.81,1.43,.37,2.81,.96,4.71,1.64-4.23,1.09-8.69-2.45-11.97,2.71,1.78,.13,2.87,.09,3.91,.31,6.56,1.4,12.79,1.21,18.16-3.53,.28-.25,.68-.52,1.02-.53,.9-.03,1.8,.09,2.7,.14-.23,.85-.19,1.97-.73,2.5-2.39,2.32-4.94,4.46-7.59,6.81,1.85-.25,3.67-.5,5.56-.76-1.68,2.54-4.16,2.68-6.56,2.13-5.82-1.32-11.59-2.89-16.85-4.23-4.16,1.42-8.17,2.78-12.18,4.14ZM435.83,45.83c-3.23,.3-5.98,1.06-8.56,.68-4.77-.7-7.91,.66-9.38,5.37-.02,.07-.27,.06-.78,.17,.76-2.47,1.46-4.75,2.16-7.01-3.67-1.8-3.85-1.61-7.28,7.21,.18-2.82,.37-5.64,.56-8.57-6.39-.32-5.94,6.61-10.52,8.94,0-2.33-.05-4.27,.01-6.21,.08-2.91-1.17-4.34-4.07-4.55-4.04-.29-7.95,2.43-9.31,6.58-1.71,5.21,1.47,9.51,2.83,14.17-.18-3.2-.37-6.4-.55-9.6,.99,10.23,3.72,19.93,7.24,28.13-.31-5.85-.67-12.83-1.04-19.81l.93-.06c.04,7.12-.64,14.34,2.63,21.44-.51-9.29-1.49-18.24,3.82-26.24-2.71,8.87-2.4,17.88-1.32,26.99,2.22-8.85,5.16-17.29,11.48-24.13-4.36,7.29-6.14,15.34-7.53,24.42,.65-.94,.83-1.15,.95-1.38,4.91-9.18,9.73-18.41,14.78-27.51,1.08-1.95,3.01-3.42,4.54-5.12-7.02,10.98-11.39,22.97-16.31,34.74,7.17-10.54,16.21-19.21,26.99-26.85l-3.87-1.17c.54-3.63,1.03-6.94,1.58-10.62Zm118.74,390.37l24.41-7.03,.34,.94c-4.79,1.73-9.62,3.35-14.35,5.22-3.04,1.2-6.13,2.48-8.86,4.23-2.63,1.69-3.28,4-2.87,6.78,3.28-8.25,11.26-6.72,17.57-8.67-5.46,2.34-12.41,1.7-16,7.75l.38,.92c5.82-2.08,11.65-4.16,17.47-6.24l.44,.76c-2.83,2.05-5.66,4.1-8.47,6.13,.53-.14,1.17-.26,1.78-.47,6.54-2.26,11.09-6.63,13.92-12.93,2.11-4.68,4.49-9.25,6.53-13.95,.84-1.92,1.42-4.06,1.59-6.15,.57-6.88,2.52-13.17,6.93-18.58,.38-.47,.7-.98,1.18-1.66-9.66-.78-18.51,.06-26.42,7.53h16.96c.01,.33,.02,.66,.03,1-2.57,.2-5.13,.48-7.7,.57-3.1,.11-6.21-.07-9.3,.12-3.5,.22-6.17,2.49-7.56,6.01,6.27-2.72,8.49-3.13,11.59-2.15-13.85,1.36-14.25,4.78-14.96,14.6,.55-1.35,1.1-2.7,1.44-3.55,.89-.5,1.56-.82,2.18-1.23,4.22-2.77,8.24-5.95,12.71-8.21,2.73-1.38,6.14-1.56,9.29-1.84,.74-.07,1.64,1.65,2.46,2.54-.89,.46-1.73,1.12-2.67,1.34-2.34,.53-4.94,.39-7.03,1.37-3.5,1.66-6.72,3.92-9.97,6.06-1.19,.78-2.13,1.94-3.18,2.92l.43,.56c4.88-1.7,9.77-3.4,14.65-5.1-6.86,2.82-13.26,6.37-19.76,9.73l.66,1.45c5.72-2.29,11.43-4.62,17.18-6.86,1.31-.51,2.74-.74,4.11-1.1l.31,1.01c-3.56,3.93-7.72,6.89-13.02,8.22-3.29,.83-6.6,1.75-9.75,2.99-2.44,.96-4.46,2.65-4.69,4.97Zm-6.49-307.75c-3.12,2.24-5.71,4.72-5.88,8.83-.29,7.12,4.8,10.06,10.6,12.9-5.97,.15-10.08-2.68-11.77-7.48-2.27-6.46-1.28-12.03,4.01-16.69,.82-.72,1.12-2.02,1.67-3.05-1.17,.16-2.45,.08-3.49,.54-2.97,1.3-5.84,2.82-8.74,4.25l-.29-.49c3.59-2.15,7.18-4.3,10.77-6.46l-.26-.7c-3.65,1.03-7.3,2.05-10.94,3.08l-.19-.43c3.25-1.41,6.5-2.81,9.75-4.22l-.02-.9c-2.84-.33-5.69-.66-9.2-1.06,2.89-.4,5.14-.7,8.03-1.1-4.63-2.64-8.94-3.51-13.51-2.03-.75,.24-1.77,1.73-1.6,2.36,1.15,4.37,2.08,8.92,4.04,12.94,2.55,5.2,6.48,9.73,8.91,14.96,2.31,4.97,5.97,7.79,10.76,9.57,4.91,1.82,8.29,.15,10.02-4.7,1.55-4.35,3.19-5.2,7.51-3.92,4.3,1.28,8.57-.58,10.48-4.46-1.57-.77-3.3-1.31-4.67-2.34-3.98-2.97-7.8-6.16-11.71-9.22-1.67-1.3-3.42-2.5-5.14-3.75l-1.01,.85c1.1,2.3,2.21,4.6,3.31,6.91l-.43,.31c-1.47-1.84-2.94-3.69-4.5-5.65-2.39,5.24-.56,10.19,1.19,15.9-4.62-5.27-5.24-10.66-3.9-16.92-5.18,4.47-6.71,9.65-5.71,15.76-2.05-4.94-.81-9.36,1.91-13.59Zm-156.56,378.91l.37-.27c-1.69-4.19-3.54-8.33-5.04-12.58-2.16-6.14-2.57-10.33-1.53-13.57,.78,11.81,5.89,21.38,12.49,30.34-3.36-7.97-6.35-15.98-4.77-24.88,.49,9.33,3.5,17.91,7.41,26.35,1.45-9.52,2.87-18.8,4.19-27.48-1.04,1.56-2.37,3.54-3.86,5.75-1.71-2.46-12.16-10.46-14.1-11.2-3.56-1.36-7.12-2.72-10.62-4.21-3.61-1.53-6.18-.89-8.44,2.13-1.24,1.66-2.68,3.17-4.2,4.94,2.02,7.97,17.9,25.47,25.8,28.04-4.83-8.63-9.62-17.17-14.4-25.7l.56-.31c5.38,7.55,10.75,15.11,16.13,22.66Zm-134.36,8.18l-.62,.05c.26,1.99,.34,4.04,.83,5.97,1.11,4.34,3.29,8.14,6.77,11.02,1.41,1.16,3.1,2.34,4.61-.16,2.52-4.19,3.54-4.45,7.78-1.65,2.18,1.44,4.6,1.99,6.57,.61,2.72-1.9,5.28-4.25,7.25-6.9,.88-1.18,.13-3.55,.21-5.38,.05-1.16,.24-2.32,.42-3.47,.11-.67,.53-1.33,.47-1.97-.43-4.77-.38-4.86,3.67-7.11,.98-.55,1.83-1.33,3.22-2.37l-28.64,1.86c2.6,1.27,5.45,2.68,8.3,4.08l-.1,.31-7.46-1.93-.2,.5c.66,.55,1.32,1.1,1.98,1.64l-.2,.34c-1.44-.56-2.88-1.12-4.96-1.94,2.08,2.46,3.69,4.36,5.31,6.27l-.38,.34c-1.41-1.18-2.82-2.36-4.23-3.54l-.22,.26,1.92,3.41-.43,.32-1.76-2.44-.42,.35c1.06,2.12,2.12,4.24,3.18,6.36l-.32,.13c-2.45-2.95-4.9-5.9-7.35-8.85l-.51,.27,3.29,10.38-.22,.13c-1.84-3.26-3.69-6.53-5.53-9.79l-.39,.13c.77,2.96,1.54,5.93,2.3,8.89l-.33,.18c-1.27-2.1-2.55-4.21-3.82-6.31ZM545.63,103.98l.49-.25-.86-11.47h.37c.95,3.91,1.91,7.83,2.86,11.75l.4-.19c.39-5.79,.78-11.58,1.17-17.36,.26,3.52,.22,6.98,.27,10.44,.09,6.02,.55,7.94,2.4,10.18-.07-.66-.14-1.13-.18-1.61-.8-9.66,.1-18.73,8.21-25.6,1.45-1.23,2.26-3.2,3.36-4.83l-.39-1.16c-2.51-.17-5.13-.91-7.49-.4-5.56,1.19-8.77,5.04-10.11,10.53-.55,2.24-1.5,4.25-4.12,4.79-2.61,.54-3.83-1.09-5.13-2.95-2.09-2.99-4.58-2.84-6.34,.31-.98,1.76-1.94,3.3-4.24,3.57-.61,.07-1.33,1.2-1.57,1.98-.91,3-1.64,6.06-2.6,9.7,2.78,2.29,6.18,5.09,9.58,7.89l.42-.37c-.79-1.26-1.58-2.52-2.37-3.77,3.55,3.3,6.96,5.03,14.37,6.85-10.62-9.22-14.15-13.34-15.06-17.71,3.72,5.58,7.28,11.09,13.24,14.3-4.11-5.56-6.75-11.71-8.29-17.93,3.04,5.58,6.26,11.48,9.47,17.39l.46-.34-2.46-10.93,.38-.06c1.25,2.43,2.5,4.86,3.75,7.28ZM236.05,358.64c-4.31-7.07-12.03-4.74-17.46-7.53l.22-.7c3.92,.66,7.85,1.32,11.73,1.97-3.22-2.51-6.53-4.88-9.6-7.54-3.8-3.3-6.89-7.22-7.86-12.33-.28-1.44,.13-3.01,.23-4.52,.43-.15,.86-.3,1.29-.46,3.41,8.38,9.12,14.57,16.86,19.18-.9-5.52-6.77-5.92-9.6-10.27,2.48,1.48,4.32,2.58,6.17,3.68l.7-.68c-3.88-6.12-7.75-12.24-11.63-18.37l.57-.36c2.02,2.79,4.03,5.58,6.05,8.37l.4-.34c-2.63-8.78-5.26-17.56-7.89-26.35-.5,.9-.41,1.71-.6,2.45-2.09,8.27-3.19,16.83-7.75,24.35-1.23,2.04-2.05,4.45-2.51,6.8-1.07,5.5,.1,10.5,4.53,14.3,7.37,6.32,16.59,6.73,26.15,8.32ZM493.36,78.74c-7.12,12.58-14.86,24.75-25.94,34.44,10.12-6.46,21.31-11.79,25.71-24.92-3.42,4.59-6.48,8.71-9.54,12.82l-.84-.59c1.15-1.74,2.24-3.52,3.47-5.21,6.67-9.22,13.6-18.26,15.85-29.88,1.02-5.29,1.46-9.66,.45-12.1-.2,.23-.41,.42-.57,.66-10.12,14.69-21.04,28.57-36.48,38.22-3.55,2.22-3.37,2.85-1.11,6.4,.15,.24,.38,.42,.73,.79,3.9-4.14,7.76-8.24,11.62-12.34l.62,.52c-3.81,4.95-7.62,9.9-11.42,14.85l.66,.48c12.17-11.21,21.05-25.28,31.81-37.71-4.75,7.58-9.67,15-14.94,22.15-5.27,7.16-10.9,14.06-16.29,20.98,11.38-7.42,17.46-19.62,26.24-29.56ZM248.65,367.36l.56-.11c-.16-2.12-.19-4.26-.51-6.36-1.21-7.93-2.08-15.89-.69-23.87,.48-2.74,1.28-5.53,2.56-7.96,.49-.93,2.87-1.43,4.21-1.18,1.71,.32,2.14,1.87,1.4,3.7-.88,2.15-1.66,4.38-2.14,6.65-.76,3.58-1.22,7.23-1.81,10.85,4.85-4.26,5.89-9.89,7.25-15.41-.54,5.12-.95,10.23-4.3,14.53-1.43,1.84-3.41,3.62-2.12,7.36,2.5-4.31,4.67-8.08,6.85-11.84,.52,1.21,.67,2.34,.5,3.42-.71,4.55-2.81,8.44-5.7,11.97-.65,.8-1.46,1.8-1.48,2.73-.08,4.48,.06,8.98,.2,13.46,.02,.64,.51,1.27,.79,1.91l.78-.02c-.76-4.6-.38-8.97,1.79-12.65,.35,4.02,.71,8.25,1.07,12.47,.37-.03,.73-.05,1.1-.08-.08-1.08-.08-2.17-.25-3.24-.98-5.84-1.37-11.53,2.02-16.93,1.09-1.74,1.44-4,1.91-6.07,2.24-10.08-.67-19.67-3.03-29.28-.55-2.24-2.78-3.08-4.93-2.06-1.12,.53-2.12,1.38-3.03,2.24-6.15,5.78-9.08,13.22-10.76,21.27-1.35,6.46-.91,12.55,3.43,17.97,1.63,2.03,2.9,4.34,4.34,6.53Zm293.88-104.74c-.25,1.5-.48,2.93-.72,4.36l.92,.16c.3-.59,.7-1.15,.89-1.77,1.58-5.23,5.18-8.79,9.49-11.85,2.32-1.65,4.42-1.4,6.99,.33-7.56,7.43-14.04,15.28-14.4,25.75,4.24-6.72,8.72-13.81,13.19-20.89l.88,.53c-.66,1.01-1.36,2-1.97,3.04-3.57,6.02-7.28,11.98-10.63,18.12-1.8,3.29-1.76,6.21-1.03,8.12,3.56-6.18,7.32-12.7,11.07-19.21l.93,.5c-.76,1.41-1.53,2.8-2.27,4.22-2.67,5.18-5.49,10.29-7.93,15.59-1.38,3.01-1.77,6.31-.23,9.72,.7-3.74,1.35-7.19,2-10.64,1.63,7.87-1.23,16.21,4.37,23.85-.2-2.3-.25-4.05-.52-5.77-1.49-9.65-1.12-18.74,4.22-27.61,4.45-7.38,6.15-15.9,5.62-24.73-.13-2.11-.83-3.51-2.8-3.78-3.72-.51-7.51-1.22-11.2-.94-3.67,.28-6.28,2.68-7.08,6.65l1.46-.91c-1.09,2.6-2.13,5.06-3.16,7.51l.78,.37,1.15-.72Zm20.19,199.19c.54-1.53,1.16-3.03,1.59-4.59,.63-2.28-.54-3.65-2.84-3.49-5.27,.35-9.96,5.22-9.81,10.49,.12,4.18,.1,8.47,1.03,12.5,1.05,4.52,3.1,8.8,4.72,13.18l.6-.28c.5-6.19,1-12.38,1.5-18.56l.78,.06c-.42,3.85-.84,7.7-1.26,11.55,1.7-8.34,4.57-14.58,8.25-16.72-4.82,7.34-6.16,15.54-6.73,24.78,.94-2.11,1.49-3.56,2.21-4.92,4.62-8.69,9.45-17.23,16.63-24.2-2.41-2.43-3.61-2.4-8.57,.57l.68-2.03c-3.47-1.77-6.25-1.13-8.78,1.65Zm19.81,.61c-3.53,.35-5.69,2.31-7.14,5.14-3.29,6.4-6.52,12.82-9.76,19.24-.25,.49-.34,1.05-.5,1.58,5.6-7.47,12.2-13.5,20.5-17.62,1.07-.53,1.99-1.36,3.31-2.28,2.83,.92,3.68,2.22,2.71,5.4-1.16-1.33-2.25-2.59-3.29-3.79-8.91,5.29-13.86,9.7-16.03,14.16,2.79-1.7,5.63-3.45,8.48-5.19-4.15,3.05-8.27,5.95-10.89,10.61,1.38-.23,2.58-.85,3.85-1.2,3.06-.85,6.13-2.02,9.25-2.25,6.71-.49,11.49-3.96,15.03-9.19,3.1-4.57,1.36-9.09-3.96-10.75-1.93-.6-4.31-.65-6.26-.13-5.57,1.47-5.52,1.64-5.28-3.74Zm-350.18-20.55l.67-.63c4.52,5.08,8.64,10.66,16.07,12.11-1.99-2.4-3.99-4.81-5.98-7.21l.64-.54c3.35,3.3,6.7,6.59,10.05,9.89l1.11-1.08c-1.82-2-3.65-4.01-5.49-6.03,.63,.07,1.22,.13,1.82,.19l-1.46,1.22c-2.47-3.26-5.14-6.39-7.38-9.81-8.12-12.38-20.58-18.64-33.6-24.15-1.12-.48-2.34-.73-3.51-1.09,7.06,9.33,12,20.05,20.65,27.93l.87-.63c-5.47-7.73-10.93-15.47-16.74-23.69,1.66,1.41,3.11,2.3,4.1,3.56,4.11,5.18,8.05,10.5,12.12,15.71,2.93,3.75,5.82,7.55,9.05,11.03,1.51,1.64,3.77,2.59,5.69,3.85l.17-.4c-2.95-3.42-5.91-6.83-8.86-10.25Zm313.95-245.79c.91-4.38,1.82-8.77,2.73-13.15,.68,1.33,1.15,2.78,.87,4.06-1.41,6.32-3,12.61-4.56,18.9-.95,3.82-1.96,7.63-2.94,11.45l1.19,.33c2.47-8.16,5.39-16.21,7.26-24.5,1.13-5.01,.88-10.4,.75-15.61-.08-3.43-1.03-6.85-1.59-10.27,2.45,6.65,4.27,13.53,3.14,20.54-1.93,11.99-4.47,23.88-9.5,35.07-.63,1.4-1.06,2.88-1.58,4.33l.69,.24c3.49-9.03,6.97-18.06,10.49-27.16-.7,10.37-6.13,19.2-8.99,28.87,2.65-4.47,5.31-8.93,7.96-13.4l.68,.3c-1.69,4.57-3.38,9.14-5.34,14.44,8.77-12.43,11.68-25.56,10.17-39.78-.25-2.31-1.11-4.56-1.94-7.79,1.91-3.56-2.59-16.93-8.51-21.29,2.79,11.84-1.75,22.96-.98,34.44Zm-326.93-56.14c3.43,.24,6.64-.18,8.59-3.3,1.11-1.78,1.76-3.86,2.57-5.83,.74-1.8,.79-3.35-1.33-4.39-.51-.25-.66-1.25-.97-1.9-3.18-3.67-7.6-4.4-12.45-4.18-4.79,.22-9.12,1.12-12.18,5.31,1.25,.07,2.42-.3,3.6-.35,.87-.03,2.14,.09,2.55,.65,.43,.58,.24,1.83-.05,2.66-.35,.98-1.33,1.76-1.61,2.75-.35,1.24-.25,2.59-.35,3.9,3.98-5.34,7.69-7.11,12.5-5.2-1.2,.14-2.02,.23-2.85,.32-5.06,.6-7.28,5.55-4.89,9.97,1.98,3.65,4.89,3.84,8.34,3.55,9.41-.79,10.28-1.35,11.43-9.77,.17-1.25,.4-2.5,.49-3.75,.04-.53-.21-1.08-.46-2.23-3.39,10.98-6.68,13.89-12.92,11.79Zm5.14,43.82c.2,6.1,.74,11.92,.5,17.71-.26,6.36,3.22,10.22,7.84,14.28-1.46-7.77-2.81-15-4.16-22.22l.67-.13c.8,1.37,1.6,2.73,2.39,4.1l.37-.14-.68-2.75,.84-.35c1.11,2.4,2.66,4.7,3.24,7.22,1.1,4.82,1.49,9.79,2.47,14.64,.81,4.02,2.3,5.08,6.43,5.55-1.59-2.14-3.26-4.39-4.93-6.64,8.17,7.64,11.28,9.67,16.49,10.1-.03-.19,0-.43-.1-.55-.37-.45-.73-.93-1.19-1.28-5.58-4.21-8.55-9.99-9.83-16.7-1.09-5.72-2.28-11.29-7.89-14.56-.71-.42-1.12-1.34-1.73-1.97-3.02-3.13-6.7-5.08-10.72-6.33Zm-14.05,179.35c2.41,1.19,4.62,2.27,6.82,3.35l.25-.49c-.8-.96-1.6-1.92-2.4-2.88,1.83,.83,3.31,2.75,4.89,2.84,6.18,.36,12.4,.15,17.75,.15-3.76-.57-8.4-1.28-13.04-1.99l.12-.76c4.17,.46,8.33,.91,12.5,1.37-5.49-1.61-11.05-2.85-16.58-4.25-5.68-1.44-10.84-3.95-15.09-8.24-3.24,6.64-2.44,11.97,2.19,17.03,4.67,5.1,10.67,7.5,17.34,7.98,7.19,.51,14.42,.47,21.63,.65,.51,.01,1.02-.1,1.53-.16l.05-.86c-6.66-3.42-14.02-2.48-21.21-2.62l.02-.93h16.08l.02-1.19c-2.66-.25-5.33-.51-7.99-.75-5.09-.45-10.18-.87-15.26-1.33-.97-.09-1.95-.22-2.88-.48-3.33-.91-6.15-2.39-6.74-6.44Zm-2.52-211.61c.78,0,1.16,.06,1.52,0,8.89-1.81,17.07-.1,24.3,5.35,6.7,5.05,12.03,11.3,15.49,19.06,.54,1.21,1.6,2.19,2.42,3.27l1.1-.47c0-3.55,.55-7.2-.15-10.61-.72-3.48-2.66-6.7-4.06-10.03l.67-.41c1.35,2.4,2.71,4.8,3.96,7.03,2.28-6.88-.93-9.21-6.84-12.46-.08-.05-.2-.03-.28-.08-8.66-4.92-18.14-5.31-27.74-5.04-3.91,.11-7.34,1.28-10.38,4.4Zm66.05,339.07l.36,.49c-3.42,1.8-6.84,3.61-10.26,5.41l.15,.6,6.54-.69,.04,.34-4.14,1.13,.09,.3h5.15c-2.11,.47-3.56,.8-5.52,1.23,4.55,2.62,8.71,.81,12.93,1-2.93,.86-5.86,1.73-9.46,2.79,9.45,1.55,18.01-.81,26.83-1.46-1.65-1.95-3.5-3.3-5.24-4.78-1.36-1.15-2.79-2.36-.73-4.25,.73-.66,1.11-1.7,1.65-2.56-1.08-.5-2.13-1.32-3.26-1.45-3.83-.44-4.53-1.21-3.85-5.14-1.65-.62-3.34-1.26-4.57-1.72-3.17,2.67-5.88,5.2-8.85,7.37-2.94,2.14-6.15,3.92-9.23,5.85l.19,.45c3.73-1.64,7.45-3.28,11.18-4.92Zm189.71,3.22c4.32,6.92,12.98,6.79,18.51,11.98-5.34-1.81-10.67-3.62-16.9-5.73,3.7,2.51,6.72,4.55,9.74,6.59l-.23,.51c-2.95-1.27-5.89-2.54-8.73-3.77,.2,1.94,.43,4.19,.72,6.94,1.06-1.22,1.77-2.03,2.61-3.01,.39,.93,.67,1.61,.94,2.25,10.57,.01,20.76-1.76,30.58-5.55,3.96-1.53,5.6-4.13,5.27-8.52-5.79,0-11.63,.53-17.33-.15-5.67-.67-11.19-2.56-16.78-3.91l-.31,1.04c7.21,2.4,14.42,4.8,21.63,7.19l-.14,.64c-8.09-1.96-16.18-3.92-24.27-5.89l-.18,.3c6.61,2.46,13.22,4.91,19.82,7.37l-.34,.91c-8.39-2.49-17.2-3.84-24.62-9.21Zm-143.39,23.73l-.83-.1c-1.4,5.68-1.78,11.75-6.13,17.28,.51-4.65,.93-8.43,1.34-12.21l-.77-.43c-1.84,9.03-8.62,14.05-15,19.41,1.14-1.54,2.27-3.08,3.88-5.26-7.37,3.38-14.05,6.45-20.73,9.51l-.33-.6c.6-.76,1.21-1.53,2.31-2.92-2.06,.92-3.37,1.5-4.68,2.08l-.22-.51c3.53-1.77,7.07-3.54,10.6-5.31-5.25-.8-12.18,3.65-15.2,8.87,3.27,0,6.77-.12,10.26,.03,6.08,.25,11.74-1.19,17.27-3.57,11.06-4.78,20.83-10.82,23.83-23.68,.96-4.11,1.8-8.24,2.88-13.19-1.4,.9-2.11,1.13-2.46,1.62-2.03,2.85-3.98,5.63-3.98,9.48,0,3.03-.86,6.06-1.34,9.08l-.9-.15c.14-1.54,.37-3.09,.39-4.63,.03-1.59-.14-3.19-.23-4.79ZM498.68,93.97l13.14-3.21,.19,.78c-11.21,1.46-17.57,5.72-17.82,11.93,6.08-4.34,11.99-6.64,15.99-6.09-8.77,1.87-15.72,6.06-20.75,13.79,1.2-.43,2.1-.71,2.97-1.08,7.23-3.14,14.37-6.51,21.71-9.35,3.24-1.25,5.34-3.15,6.35-6.26,1.17-3.6,1.42-7.66,6.39-9.36h-13.88v.52c1.1,.32,2.19,.64,3.29,.95-10.39,.94-14.7,2.75-17.58,7.39Zm62.39,253.2l.75,.47c6.27-6.6,14.15-10.09,22.99-10.84,10.78-.91,19.77-6.06,28.93-10.96,.29-.16,.46-.54,1.05-1.26-1.99-.92-3.63-2.21-5.41-2.43-13.77-1.68-26.52,.78-37.49,9.88-.74,.62-1.65,1.04-2.48,1.56l.76,.75c6.07-3.13,12.14-6.27,18.21-9.4l.27,.53c-1.73,1.29-3.45,2.57-5.18,3.86l.21,.35,15.84-4.86c-1.25,1.17-2.72,1.63-4.16,2.17-1.34,.51-2.64,1.12-3.96,1.68,6.87-.63,13.07-4.49,20.15-3.4-1.35,.63-2.74,1.05-4.15,1.39-5.95,1.42-11.84,3.46-17.87,4.07-10.19,1.03-18.75,4.9-25.83,12.15-1.14,1.17-1.77,2.84-2.64,4.27ZM233.23,143.04c1.43,.42,2.82,.81,4.19,1.24,1.39,.44,2.75,.98,4.15,1.38,5.47,1.56,6.82,.9,9-4.28,.39-.94,.83-1.86,1.3-2.91,.56,.34,1.01,.45,1.19,.74,.72,1.14,1.33,2.35,2.02,3.51,1.63,2.76,3.62,2.81,5.24,.14,.75-1.24,1.48-2.5,2.22-3.73-7.7-9.66-11.03-11.7-17.37-10.67,5,5.18,4.89,8.82-.39,12.37,2.07-7.53,0-12.66-4.98-12.21l.6,1.91-2.38-2v6.84l-.49,.05c-.47-2.08-.93-4.16-1.4-6.24l-.87,.18-2.03,13.69Zm3.64,203.65c1.11-4.29,2.31-8.4,3.22-12.56,2.14-9.67,.32-18.65-6.62-25.73-4.74-4.83-10.6-8.56-15.86-12.7,1.92,5.57,3.89,11.3,5.86,17.03l.35-.06c.08-1.45,.15-2.9,.21-3.91,.83,5.27,1.72,10.92,2.61,16.56l1.1-.11,.92-12.95c3.12,5.91,3.19,12.06,1.93,18.25-.49,2.44,.14,4.24,2.13,6.24,.89-6.14,1.72-11.87,2.63-18.12,.73,1.42,1.69,2.43,1.68,3.43-.06,6.29,.04,12.62-.74,18.84-.27,2.15-.44,3.83,.57,5.79Zm2.84,112.06c-.9-.22-1.81-.41-2.71-.67-4.28-1.21-8.73-2.01-12.78-3.76-4.97-2.15-9.54-5.23-14.41-7.65-5.46-2.72-11.08-5.1-17.64-4.18,.24,.42,.32,.71,.5,.87,7.97,6.89,15.96,13.76,23.93,20.65,3.34,2.89,7.21,4.67,11.55,5.15,2.7,.3,5.6,.34,7.42-3.23h-14.03v-.76c4.42-.24,9.03,.87,13.07-2.34-4.8-.4-9.6-.79-15.07-1.24,1.4-.66,2.09-.98,3.36-1.58-3.97-.84-7.3-1.54-10.62-2.24l.06-.5c.98,.05,1.96,.1,3.2,.16-5.47-3.73-10.69-7.28-15.91-10.84l.72-1.15c3.05,1.77,6.44,3.14,9.07,5.39,8.82,7.53,19.23,8.76,30.27,7.9Zm-48.77-258.93c2.9,2.54,5.73,4.87,8.39,7.39,3.96,3.76,7.74,7.71,11.71,11.46,3.3,3.12,7.09,5.58,11.69,6.19,9.36,1.24,18.74,2.32,28.11,3.46-1.07-1.12-2.25-1.77-3.5-2.23-4.35-1.57-8.72-3.09-13.11-4.54-.56-.18-1.28,.13-1.93,.22-2.69,.37-5.38,.75-8.06,1.12l-.1-.61c2.47-.42,4.95-.84,7.75-1.32-1.62-2.58-3.01-3.51-5.54-2.25-1.74,.87-3.81,1.06-5.74,1.56l-.09-.47c2.32-.89,4.64-1.78,6.96-2.67l-.1-1.2c-1.08,0-2.23-.24-3.24,.04-4.39,1.25-8.13,.78-11.3-2.98-1.24-1.48-3.23-2.37-4.97-3.37-1.8-1.05-3.71-1.92-5.57-2.86l.31-.67c2.06,.63,4.12,1.25,6.66,2.03-4.6-6.99-10.6-9.44-18.33-8.3ZM462.56,48.59c3.33,6.08,3.9,9.03,1.5,14.33-1.95,4.31-4.62,8.3-7.05,12.39-1.23,2.06-2.65,4-3.98,5.99l.86,.57,13.32-17.6,.38,.21c-2.74,4.47-5.48,8.95-8.64,14.11,2.14-2.32,3.75-4.07,5.37-5.82l.37,.34c-1.8,2.48-3.59,4.96-5.39,7.44l.34,.32,5.31-5.63c-1,2.04-1.63,3.33-2.26,4.62l.27,.13c1.27-1.34,2.54-2.69,3.81-4.03l.57,.52c-2.57,3.18-5.15,6.36-7.72,9.53l-.5-.32,.59-1.39-.36-.2-1.82,1.96,3.51,6.09c.31-4.29,2.81-7.31,4.9-10.59,2.46-3.85,4.96-7.72,6.86-11.85,2.92-6.35,1.7-12.58-1.94-18.34-1.83-2.9-4.46-3.68-8.31-2.79Zm-44.35,33.56l.6,.7c2.8-1.25,5.53-2.76,8.43-3.69,3.03-.97,6.25-1.36,9.37-2.07,.51-.12,1.06-.48,1.39-.89,2.02-2.5,4.43-4.82,5.85-7.63,1.44-2.85,2.26-6.15,2.66-9.34,.27-2.22-1-4.4-3.43-5.25-2.49-.87-4.73-.4-6.6,1.68,6.07,2.24,7.12,3.79,4.56,6.77-.93-1.29-1.84-2.56-2.76-3.83-8.51,6.38-17.36,15.79-20.3,21.71,4.83-4.26,8.98-8.74,14.01-10.61-4.26,3.84-9.02,8.15-13.78,12.45Zm-88.93,448.79l-.45-.23c1.66-3.92,3.31-7.84,5.28-12.5-9.18,5.07-10.62,20.87-3.87,34.01,3.6-3.08,6.97-6.25,8.76-10.73,1.2-2.99,1.51-11.33,.71-12.92-3.21,4.39-6.49,8.88-9.78,13.37,.4-2.2,1.24-4.21,2.32-6.07,1.7-2.95,3.63-5.76,5.34-8.71,1.48-2.55,1.37-4.93-1.24-6.78-2.37,3.54-4.72,7.05-7.08,10.56Zm219.32-152.87c-1.04-4.56-2.08-9.13-3.11-13.69,1.13,1.79,1.67,3.71,2.33,5.6,.65,1.88,1.42,3.72,1.96,5.15-1.03-7.9-2.1-16.16-3.18-24.42l.71-.11c1.31,4.88,2.62,9.76,3.92,14.64,0-4.32-.61-8.57-.74-12.83-.12-4.02-1.45-7.53-3.04-11.14-2.02-4.6-3.8-9.34-5.2-14.16-1.42-4.9-2.25-9.96-3.5-15.72-.32,23.28,.29,45.64,9.84,66.69Zm18.88-49.09l.79,.27c10.3-14.05,16.98-29.34,15.91-47.29-9.04,11.67-16.07,24.22-17.45,39.28,3.65-8.9,6.62-18.11,11.77-26.31l.85,.32c-3.95,11.24-7.9,22.49-11.86,33.73ZM325.85,108.34l1.04-.23c-.43-1.84-.67-3.74-1.33-5.49-1.34-3.54-2.98-6.96-4.37-10.47-2.76-6.94-5.32-13.97-8.2-20.85-.99-2.36-2.71-4.41-4.37-7.05-2.75,7.68-3.09,22.9,.54,25.1-.32-3.33-.65-6.78-.99-10.29,2.35,6.7,4.64,13.26,6.94,19.83l.94-.26v-8.89l.49-.09c1.3,4.79,2.61,9.58,3.91,14.37l.86-.19v-4.47l.57-.15c1.33,3.04,2.66,6.08,3.99,9.12Zm-56.54-47.01c5.61,16.26,19.7,30.77,30.39,33.38-5.18-4.94-10.47-9.97-15.75-15l.59-.61c6.79,5.9,12.78,12.81,21.38,16.48-1.22-2.11-2.69-3.97-4.44-5.52-1.59-1.4-3.67-2.26-5.23-3.7-7.25-6.67-14.39-13.47-21.58-20.21-1.75-1.64-3.57-3.22-5.35-4.82Zm-10.53,391.36c-.59-5.67-3.74-10.24-6.21-15.15-2.47-4.9-4.53-10-6.76-15.02l.77-.34c3.43,7.23,6.85,14.47,10.26,21.66,.33-11.61-6.71-20.85-10.25-31.22l.79-.3c2.38,4.93,4.77,9.86,7.46,15.42,.25-3.66,.45-6.38-1.77-9.03-2.49-2.96-4.36-6.44-6.56-9.66-1.32-1.94-2.74-3.81-4.11-5.71l-.78,.43c1.15,17.89,7.97,33.82,17.17,48.92ZM191.58,196.01c10.98-1.64,18.32,3.61,23.96,12.27-2.87-6.37-6.43-12-12.98-15.18,2.32,.78,4.85,1.5,6.37,3.15,3.34,3.63,6.08,7.8,9.22,11.61,1.61,1.95,3.58,3.61,5.39,5.41-1.35-3.45-2.76-6.53-4.37-9.49-1.62-2.99-3.45-5.87-5.19-8.8l.15-.35c2.44,2.28,4.89,4.56,7.31,6.82,.6-3.65-.05-6.89-3.7-8.63-8.95-4.26-16.25-4.11-26.17,3.2Zm115,298.75c7.54-2.79,15.65-2.61,22.91-5.97-5.9-.13-11.72,.3-17.54,.35-5.79,.05-11.59-.3-17.13-.47,1.51,1.81,2.03,4.2-.7,6.35,2.52,3.09,5.73,2.54,8.79,2.25,5.04-.47,10.07-1.05,15.09-1.65,3.75-.45,7.6-.78,10.05-4.18-7.15,1.11-14.31,2.21-21.46,3.32ZM497.77,88.92c2.25-1.84,4.24-3.41,6.17-5.04,1.86-1.58,3.59-3.31,5.51-4.81,1.84-1.43,3.86-2.64,5.8-3.94-1.34,1.92-3.06,3.19-4.69,4.56-1.55,1.31-3.02,2.73-4.69,4.26,.53,.04,.77,.14,.9,.06,5.06-2.95,10.23-5.2,16.32-3.5,.58,.16,1.81-.62,2.17-1.28,1.28-2.35,2.31-4.84,3.45-7.29-12.45-3.44-28.24,5.16-30.94,16.97Zm24.78,27.41l.3-.46c-2.03-1.78-4.07-3.57-6.42-5.63,2.39,1.01,4.48,1.89,6.57,2.77l.26-.53c-1.06-.95-2.12-1.9-3.68-3.3,1.91,.59,3.11,.97,4.32,1.34l.38-.67c-1.07-.98-2.13-1.97-3.2-2.95l.3-.19,4.64,2.13c-1.62-2.48-3.5-4.46-5.59-6.18-.66-.55-2-.78-2.82-.52-1.83,.59-3.5,1.66-5.29,2.41-1.8,.75-2.6,2.01-2.32,3.89,.4,2.72,.87,5.43,1.36,8.13,.06,.34,.35,.77,.65,.93,4.24,2.26,8.5,4.48,13.21,6.95-.66-4.52-4.41-5.17-6.75-7.21l1-.73c-1.42-.56-2.66-1.04-3.89-1.52l.17-.54c2.28,.63,4.55,1.25,6.83,1.88Zm-160.72,366.22c-5.31,1.18-5.87,2.31-3.42,6.93,.72,1.37,1.46,2.83,2.53,3.91,4.99,5.04,9.98,10.11,15.22,14.89,3.65,3.33,8.19,4.99,13.77,5.3-13.08-7.4-21.96-17.89-28.1-31.03Zm-136.04-100.88c1.14,4.31,3.72,6.62,7.54,7.27,2.96,.5,6.01,.57,9.02,.63,5.3,.09,10.6,.03,16.37,.03-.9-.65-1.67-1.66-2.56-1.77-3.73-.46-7.49-.69-11.24-.9-1.34-.07-2.7,.16-4.05,.26l-.03-.64c5.18-.36,10.37-.72,15.35-1.06-1.34-2.46-3.28-3.35-7.04-2.76-4.45,.7-8.89,1.47-13.34,2.21l-.09-.45c1.17-.36,2.34-.72,3.51-1.08l.03-.57c-4.4-.38-8.79-.76-13.49-1.16Zm69.79,143.7c6.34-3.01,12.68-6.01,19.02-9.02l-.32-.82c-3.56,.76-7.11,1.51-11.46,2.44,5.69-3.15,12.01-2.58,16.72-6.85-3.69,.62-7.01,1.18-10.32,1.74l-.18-.71c2.45-.79,4.94-1.46,7.33-2.39,2.37-.92,4.64-2.09,6.95-3.14l-.4-.83c-.94,.15-1.9,.26-2.83,.45-11.35,2.3-21.74,5.84-24.51,19.14Zm153.31,23.25c3.44,2.11,6.29,2.04,8.94,0,3.2-2.46,5.24-7.27,4.18-10.54-1.07-3.28-2.73-6.43-.3-10.29-3.41,.84-6.07,1.5-7.93,1.96,.55,3.29,1.35,6.19,1.43,9.12,.09,3.49-2.69,5.28-5.38,6.89,1.13,.7,2.11,1.32,3.68,2.3-2,.24-3.14,.38-4.62,.56Zm-149.11-47.94c2.73,3.18,2.87,4.58,.64,6.66-1.41,1.32-3.08,2.36-4.67,3.47-1.33,.92-2.71,1.76-4.2,2.72,.77,1.13,1.34,1.97,2.49,3.67,.52-1,.74-1.69,1.17-2.2,4.47-5.42,10.11-9.19,16.83-11.04,4.85-1.33,9.88-2,14.82-3.01,.94-.19,1.84-.61,2.75-.92l-.27-.87c-9.7,.5-19.41,1.01-29.57,1.53Zm3.36-383.93l.29,.97h19.05l.16-.34c-3.35-.86-6.69-1.72-10.06-2.59,.8-1.37,1.55-2.68,2.3-3.98-9.65-5.35-19.12-1.8-20.19,7.5,2.76-2.75,5.46-5.45,8.17-8.15l.61,.64c-1.07,1.16-2.13,2.31-3.2,3.47l.39,.52c1.66-1.02,3.32-2.03,5.18-3.17l-1,2.17,6.12-1.73,.2,.57-8.04,4.12Zm-18.21,4.46l.46-.07c3.92-4.89,7.83-9.78,11.64-14.55-5.55-2.44-11.36-2.31-15.46,3.45-1.28,1.8-.59,5.01-.8,7.57l.9,.12c1.39-2.24,2.77-4.48,4.61-7.44v3.93l2.24-2.62,.3,.25c-1.3,3.12-2.6,6.25-3.89,9.37Zm214.26,408.52c1.55,1.36,2.89,2.53,4.22,3.69-1.25,.07-2.14-.47-3.1-.8-1.33-.46-2.71-.76-4.07-1.13,.77,1.3,1.35,2.77,2.36,3.85,1.79,1.92,3.83,3.59,5.77,5.37l-.46,.48c-2.96-2.12-5.91-4.24-9.52-6.83,3.68,5.75,8.58,8.52,13.66,11.06l.91-.47c-1.93-5.84-3.86-11.68-5.85-17.69-1.45,.91-2.5,1.57-3.91,2.46ZM244.36,193.76c4.06,6.53,3.35,14.82,9.36,20.25-.75-2.46-1.5-4.93-2.24-7.39l.41-.13,2.63,5.62c-.22-4.37-.68-8.61-1.31-12.82-.64-4.32-3.82-6.36-8.85-5.52Zm313.64-33.63c1.15-1.52,2.17-2.86,2.68-3.53-3.67,.28-7.7,.59-10.82,.83,1.95,2.76,4.44,6.28,7.12,10.06,4.25-6.35,11.8-9.96,15.08-17.74-6.3,1.5-7.15,9.84-14.06,10.39Zm-104.4-38.79c7.28-3.14,11.3-16.58,6.86-22.87-.06,.04-.18,.07-.19,.12-.07,.38-.09,.77-.18,1.15-.93,3.84-1.26,8.05-6.23,9.23-.56,.13-1.27,1.12-1.29,1.74-.12,3.53-2.3,5.44-5.15,6.79-1.71,.81-1.84,1.73-.19,3.82,3.9-4.63,7.61-9.03,11.32-13.44l.72,.4c-.7,1.74-1.25,3.56-2.15,5.19-.95,1.71-2.23,3.24-3.36,4.85l.32,.23,3.28-3.1,.47,.37c-1.41,1.84-2.81,3.68-4.22,5.52Zm-144.15,400.33c-8.37,3.52-15.36,8.45-22.92,13.63,9.98,.98,19.65-4.81,22.92-13.63Zm63.71-13.8c-6.98-6.47-14.16-12.74-17.14-22.16-4,.71-4.67,1.66-3.12,4.81,4.26,8.67,12.13,13.17,20.26,17.35Zm29.08-29.46c.87-2.53,1.6-4.63,2.32-6.73,.81-2.33-.31-4.25-2.73-4.71-2.72-.51-5,.93-5.66,3.75-.52,2.22-.84,4.48-1.27,6.84,1.2,.82,2.52,1.73,4.03,2.76l-.37-2.37,.34-.11c.55,1.01,1.1,2.02,1.65,3.04l.49-.15-.55-7.6,.34-.06c.43,1.66,.87,3.31,1.4,5.35Zm48.86-397.96l.99,.08c4.03-6.2,9.09-11.77,11.24-19.24-2.03,1.45-3.76,3.18-5.17,5.14-2.46,3.45-4.83,6.98-7,10.61-.51,.85-.07,2.25-.07,3.4Zm-47.43,8.05c-4.02,.23-6.6,.67-7.69,3.62-.23,.61-.01,1.51,.29,2.14,.13,.28,1.14,.47,1.48,.26,2.67-1.66,5.22-1.3,7.92,0,.68,.33,2.21,.14,2.53-.35,.39-.59,.26-2.15-.25-2.6-1.56-1.39-3.4-2.45-4.28-3.05Zm3.66,434.72l-.87-.17c-.27,.63-.54,1.27-.86,2.05-.61-.91-1.08-1.59-1.88-2.78-.31,1.35-.46,1.99-.47,2.02-1.71-.78-3.34-1.52-5.19-2.36l-.34,2.34-.53-.09-.16-2.66c-2.01,.97-2.44,2.63-1.27,4.07,1.13,1.41,3.03,3.31,4.4,3.16,2.43-.26,4.76-1.81,6.99-3.06,.41-.23,.14-1.65,.19-2.52Zm-141.81-31.31c1.41-.78,2.47-1.24,3.37-1.89,2.44-1.77,4.91-3.51,7.19-5.47,2.65-2.28,2.3-4.2-.55-5.84-3.24,4.28-6.46,8.51-10.02,13.2Zm-10.71,6.28c-.75,.53-2.07,1.07-2.65,2.04-.36,.61,.12,2.14,.72,2.8,1.46,1.62,5.24,1.92,7.05,.63,.69-.5,1.43-1.54,1.38-2.29-.04-.71-.95-1.65-1.7-1.98-1.31-.56-2.78-.73-4.81-1.2Zm-17.36-383.03c-1.93-.28-3.31,.77-3.4,2.79-.1,2.13,1.8,1.74,3.2,1.95,.89,.13,1.76,.54,2.6,.91,1.85,.8,3.04,0,2.96-2.04-.08-2.11-2.15-3.55-5.36-3.6Zm312.53,7.16c2.1-1.34,3.99-2.48,5.8-3.73,.81-.56,1.48-1.34,2.21-2.01-.91-.67-1.77-1.84-2.73-1.92-3.65-.33-5.94,2.98-5.29,7.66Zm6.92,374.8c-1.45,.85-3.01,1.45-4.11,2.52-.53,.52-.59,2.14-.16,2.84,.3,.5,1.83,.54,2.7,.33,.99-.23,1.95-.87,2.77-1.51,.84-.66,1.51-1.55,2.26-2.33-1.05-.56-2.1-1.13-3.46-1.85ZM235.93,179.34c5.73,1.58,11.22,3.09,16.72,4.6-.17-.28-.45-1.41-1.12-1.73-4.9-2.37-9.79-5.11-15.59-2.87Zm80.23-65.27l15.03,4.63c-4.61-5.08-11.33-6.98-15.03-4.63Zm225.58,335.26c1.82,2.5,3.41,4.68,5,6.86l.64-.33c-1.08-2.96-2.16-5.92-3.41-9.33-1,1.24-1.41,1.75-2.04,2.53-.21-1.18-.34-1.93-.63-3.54-.8,3.25-1.39,5.67-1.99,8.09l.84,.19c.5-1.42,1.01-2.84,1.59-4.47Zm-37.67,42.08l-.07-.7h-21.2v.91c7.11,.89,14.2,.83,21.27-.2Zm79.9,43.31c7.94-4.85,13.28-15.64,11.01-22.22-.31,9.11-4.03,16.48-11.01,22.22Zm-77.96-11.12c3.13,2.98,5.63,6.21,9.87,6.95,.89,.16,1.96-.74,2.52-.97-4.19-2.02-8.08-3.9-12.4-5.98Zm2.48-1.75c3.24,4.24,9.84,6.75,11.73,4.21-4.03-1.44-8.1-2.9-11.73-4.21Zm-118.59-46.38c-2.28-4.06-6.12-5.4-9.33-3.48,3.06,1.14,6.01,2.24,9.33,3.48Zm-140.41,11.07c.38-.25,.77-.49,1.15-.74l-6.55-10.26-1.11,.71,6.51,10.29ZM563.18,179.49c-3.23,3.42-3.63,5.5-1.72,9.61,.57-3.2,1.14-6.4,1.72-9.61Zm-100.56-60.96c3.52-.04,9.64-4.36,11.69-7.72-3.67,2.42-7.46,4.93-11.69,7.72Zm37.87-5.5l.36,.86c4.4-.05,6.2-1.15,5.45-4.15-2.05,1.16-3.93,2.23-5.81,3.29Zm-6.83,380.68c.03,.29,.06,.59,.08,.88,3.63-.27,7.25-.55,10.88-.82l-.1-1.08c-3.62,.34-7.24,.68-10.87,1.03Zm68.86-339.4c1.67-1.78,3.34-3.56,5.21-5.55-4.79-.86-4.05,3.2-5.21,5.55Zm-45.58,378.42l-7-1.87c3.45,3.58,5.44,4.13,7,1.87Zm37.37-172.33c.29-2.96,.5-5.19,.76-7.9-2.09,2.55-2.32,4.79-.76,7.9Z"/><path d="M588.02,137.43c2.13-2.68,4.27-5.36,6.4-8.04-.73,6.82-5.97,10.53-10.65,14.71,.64-1.14,1.24-2.31,1.94-3.42,.71-1.12,1.53-2.18,2.31-3.26Z"/><path d="M568.25,549.25c1.03-5.06,6.09-2.64,8.66-4.89-1.34,4.34-5.57,3.6-8.66,4.89Z"/><path d="M582.44,147.85c-1.84,1.86-3.69,3.72-5.53,5.58l-.7-.62c1.67-2.02,3.33-4.03,5-6.05l1.23,1.08Z"/><path d="M383.93,97.04c-5.8,.19-11.6,.43-17.4,.55-1.02,.02-2.04-.43-3.03-1.03h20.47c-.01,.16-.02,.32-.04,.48Z"/><path d="M248.45,249.64c-2.45-1.48-4.91-2.95-7.36-4.43l.43-.84c3.86,2.08,7.71,4.17,11.57,6.25-1.55-.33-3.09-.65-4.64-.98Z"/><path d="M505.85,475.16c10.72-4.24,16.64-12.19,20.3-22.97,4.26-12.56,5.5-25.18,4.59-38.26-.63-9.14-.71-18.32-.38-27.52,.38,4.42,.9,8.84,1.12,13.27,.51,10.42,1.27,20.85,1.21,31.27-.07,11.47-3.66,22.28-8.92,32.33-3.64,6.95-10.09,10.72-17.92,11.88Z"/><path d="M512.97,128.7c6.18,4.89,11.59,10.44,15.89,17.17,6.06,9.48,6.96,19.98,6.16,30.68-.75,10.09-2.24,20.12-3.44,30.18-.11,.92-.49,1.81-1.26,2.61,.53-5.41,1.29-10.81,1.54-16.24,.46-10.22,1.34-20.49,.72-30.66-.67-10.94-6.97-19.64-14.34-27.41-1.88-1.98-4.04-3.68-6.08-5.51l.81-.83Z"/><path d="M529.44,264.64c-2.4-17.4-1.24-34.73,.92-52.02v52l-.92,.03Z"/><path d="M490.44,125.88c12.83,3.4,23.47,9.99,30.97,21.19-9.02-8.98-19.19-16.26-30.97-21.19Z"/><path d="M292.74,130.87c-3.6,2.15-6.71,3.75-9.54,5.75-9.62,6.78-14.91,16.5-15.72,27.88-.94,13.1-.36,26.31-.42,39.48-.03,5.85,0,11.69,0,15.29-.31-2.7-1.24-7.71-1.41-12.74-.41-12.77-1.1-25.58-.54-38.32,.76-17.44,8.62-30.46,25.37-36.77,.51-.19,1.07-.26,2.27-.55Z"/><path d="M299.5,478.47c-6.9-.61-12.79-3.5-17.89-8.09-8.26-7.44-11.42-17.44-13.64-27.8-.9-4.21-1.01-8.59-1.48-12.9l.95-.12c.53,3.48,.85,7,1.63,10.42,2.6,11.4,6.13,22.38,15.38,30.45,4.41,3.84,9.54,6.3,15.05,8.05Z"/><path d="M268.67,390.86c-.31,10.48-.62,20.96-.94,32.12v-32.14c.31,0,.63,0,.94,.01Z"/><path d="M269.18,369.55v16.85l-.24,.03v-16.75l.24-.13Z"/><path d="M450.47,103.7c.3-1.6,.19-3.45,.99-4.74,1.74-2.81,.51-4.99-.89-7.19-.97-1.53-2.18-2.91-3.71-4.91,3.54,.75,5.12,2.8,5.77,5.32,1.04,4.03,1.08,8.09-1.22,11.73l-.94-.2Z"/><path d="M445.52,98.75c3.19,3.51,3.33,7.73,.47,10.88-.19-3.53-.39-7.15-.58-10.78l.12-.1Z"/><path d="M570.85,91.68c3.3-2.81,7.33-3.02,11.34-3.36-3.76,1.17-7.49,2.33-11.22,3.49l-.12-.14Z"/><path d="M355.7,124.1c2.05,.35,4.16,1.05,6.23,.97,3.25-.13,5.92,.49,7.56,3.01-2.46,0-5.09-.02-7.73,0-3.58,.04-5.36-1.27-6.06-3.98Z"/><path d="M454.54,496.58c.68,.77,1.76,1.45,1.97,2.33,.78,3.31,1.28,6.69,1.89,10.07-2.8-2.17-3.91-5.14-3.47-8.88,.14-1.16-.22-2.38-.35-3.57l-.05,.04Z"/><path d="M454.58,496.54c-2.24-1.94-4.47-3.88-6.89-5.98,4.24,.75,6.51,2.8,6.85,6.01,0,0,.04-.03,.04-.03Z"/><path d="M358.03,561.02c-.91-1.49-2-2.68-1.78-3.01,.65-.98,1.73-1.81,2.82-2.27,.36-.15,1.9,1.35,1.82,1.47-.66,1.15-1.56,2.16-2.86,3.8Z"/><path d="M368.23,559.7c1.05,1.46,2.23,2.41,2.07,3.05-.19,.81-1.45,1.88-2.26,1.89-.74,.01-2.03-1.19-2.09-1.94-.06-.73,1.13-1.57,2.29-3Z"/><path d="M349.85,540.17c.9,1.46,1.77,2.25,1.73,2.99-.03,.61-1.23,1.7-1.76,1.62-.79-.13-1.94-1.03-2.03-1.72-.09-.66,.98-1.47,2.05-2.89Z"/><path d="M579.98,248.92c-3.69-1.1-7.38-2.2-11.06-3.29l.19-.67c3.7,1.08,7.39,2.16,11.09,3.24l-.22,.72Z"/><path d="M577.51,397.26c3.72-.39,7.44-.78,11.16-1.17l.08,.78-11.11,1.07-.14-.68Z"/><path d="M243.35,342.76c.72,4.5,1.71,10.65,2.61,16.25-3.43-5.16-2.85-11.55-2.61-16.25Z"/><path d="M487.02,513.33c2.9,.81,5.38,4.09,5.73,7.54-1.88-2.52-3.78-5.06-5.68-7.61l-.06,.07Z"/><path d="M588.14,479.86c-.33-.86-.59-1.55-.92-2.41,.91-.54,1.79-1.06,2.64-1.56,1.96,2.02,1.6,2.9-1.72,3.97Z"/><path d="M224.32,424.55c2.03,3.94,4.07,7.88,6.1,11.81l-.76,.42c-2.21-3.81-4.43-7.63-6.64-11.44l1.3-.8Z"/><path d="M240.92,210.21c-1.23-4.5-2.46-9-3.69-13.51l.77-.22c1.25,4.5,2.51,8.99,3.76,13.49l-.84,.24Z"/><path d="M241.31,159.77c2.17-.82,3.98,1.01,5.9,6.5-2.14-2.35-4.04-4.45-5.9-6.5Z"/><path d="M442.17,67.13l-3.3,2.9c-.5-.6-1.54-1.59-1.43-1.74,.78-1.06,1.76-1.98,2.78-2.82,.08-.07,.92,.77,1.95,1.66Z"/><path d="M336.96,65.41c-1.77-3.42-3.53-6.85-5.3-10.27l.8-.41c1.73,3.4,3.46,6.79,5.18,10.19l-.68,.5Z"/><path d="M539.88,322.95c1.87,8.53,3.59,16.43,5.32,24.34-4.98-7.29-5.9-15.4-5.32-24.34Z"/><path d="M542,347.25c1.11,4.22,2.23,8.45,3.34,12.67l-.62,.17-3.58-12.6c.28-.08,.57-.16,.85-.24Z"/><path d="M312.53,77.7c.41,3.61,.81,7.23,1.22,10.84l-.6,.07c-.46-3.62-.91-7.24-1.37-10.86l.75-.05Z"/><path d="M544.37,411.29v-13.97l.48,.02v14.12l-.48-.17Z"/><path d="M541.89,375.64c1.08,4.72,2.17,9.44,3.25,14.17-.33,.07-.65,.14-.98,.2-.76-4.79-1.51-9.58-2.27-14.37h0Z"/><path d="M299.56,491.07l10.83-1.3,.08,.66-10.83,1.36-.09-.72Z"/></svg>